<svg width="80" height="80" viewBox="0 0 80 80" fill="none" xmlns="http://www.w3.org/2000/svg">
<rect width="80" height="80" rx="8" fill="#F5F5FD"/>
<path fill-rule="evenodd" clip-rule="evenodd" d="M29.33 29.33C27.5 31.1625 27.5 34.1075 27.5 40C27.5 45.8925 27.5 48.8387 29.33 50.6688C31.1625 52.5 34.1075 52.5 40 52.5C45.8925 52.5 48.8387 52.5 50.6688 50.6688C52.5 48.84 52.5 45.8925 52.5 40C52.5 34.1075 52.5 31.1613 50.6688 29.33C48.84 27.5 45.8925 27.5 40 27.5C34.1075 27.5 31.1613 27.5 29.33 29.33ZM42.1875 37.5C42.1875 38.0175 42.6075 38.4375 43.125 38.4375H43.9875L41.4713 40.9537C41.4422 40.9829 41.4077 41.0059 41.3698 41.0217C41.3318 41.0374 41.2911 41.0456 41.25 41.0456C41.2089 41.0456 41.1682 41.0374 41.1302 41.0217C41.0923 41.0059 41.0578 40.9829 41.0287 40.9537L39.0463 38.9713C38.6361 38.5613 38.0799 38.3311 37.5 38.3311C36.9201 38.3311 36.3639 38.5613 35.9537 38.9713L33.0875 41.8375C32.9954 41.9233 32.9215 42.0268 32.8703 42.1418C32.819 42.2568 32.7915 42.381 32.7893 42.5068C32.787 42.6327 32.8102 42.7578 32.8573 42.8745C32.9045 42.9912 32.9747 43.0973 33.0637 43.1863C33.1527 43.2753 33.2588 43.3455 33.3755 43.3927C33.4922 43.4398 33.6173 43.463 33.7432 43.4607C33.869 43.4585 33.9932 43.431 34.1082 43.3797C34.2232 43.3285 34.3267 43.2546 34.4125 43.1625L37.2787 40.2963C37.3078 40.2671 37.3423 40.2441 37.3802 40.2283C37.4182 40.2126 37.4589 40.2044 37.5 40.2044C37.5411 40.2044 37.5818 40.2126 37.6198 40.2283C37.6577 40.2441 37.6922 40.2671 37.7213 40.2963L39.7037 42.2787C40.1139 42.6887 40.6701 42.9189 41.25 42.9189C41.8299 42.9189 42.3861 42.6887 42.7963 42.2787L45.3125 39.7638V40.625C45.3125 40.8736 45.4113 41.1121 45.5871 41.2879C45.7629 41.4637 46.0014 41.5625 46.25 41.5625C46.4986 41.5625 46.7371 41.4637 46.9129 41.2879C47.0887 41.1121 47.1875 40.8736 47.1875 40.625V37.5C47.1875 37.2514 47.0887 37.0129 46.9129 36.8371C46.7371 36.6613 46.4986 36.5625 46.25 36.5625H43.125C42.8764 36.5625 42.6379 36.6613 42.4621 36.8371C42.2863 37.0129 42.1875 37.2514 42.1875 37.5Z" fill="#A8EAB6"/>
</svg>
