<svg width="24" height="24" viewBox="0 0 24 24" fill="none" xmlns="http://www.w3.org/2000/svg">
<path d="M6.72867 2.31644L8.38895 1.81586C8.9369 1.65092 9.52614 1.69094 10.0468 1.92846C10.5674 2.16598 10.9838 2.58477 11.2184 3.10672L12.3824 5.69529C12.5844 6.14437 12.6407 6.64544 12.5434 7.12816C12.4461 7.61087 12.2 8.05099 11.8398 8.38672L10.0681 10.0376C9.83067 10.263 10.0107 11.1416 10.8781 12.645C11.7464 14.1493 12.4175 14.7442 12.727 14.6516L15.0481 13.9419C15.5186 13.798 16.0223 13.8049 16.4887 13.9617C16.9551 14.1184 17.3607 14.4172 17.6487 14.8162L19.303 17.109C19.6371 17.572 19.7918 18.1406 19.7384 18.709C19.6849 19.2775 19.427 19.8072 19.0124 20.1999L17.7335 21.411C17.3207 21.802 16.8115 22.0764 16.258 22.2064C15.7045 22.3363 15.1264 22.3171 14.5827 22.1507C11.9032 21.3304 9.42181 18.8962 7.10495 14.8822C4.78295 10.8622 3.9061 7.47129 4.51724 4.70101C4.6405 4.1428 4.9104 3.62756 5.29912 3.2084C5.68784 2.78925 6.18131 2.48135 6.72867 2.31644Z" fill="white"/>
</svg>
