<svg width="80" height="80" viewBox="0 0 80 80" fill="none" xmlns="http://www.w3.org/2000/svg">
<rect width="80" height="80" rx="8" fill="#F5F5FD"/>
<path d="M50.3124 40.2531C50.3171 40.0843 50.3171 39.9156 50.3124 39.7468L52.0609 37.5624C52.1525 37.4477 52.216 37.3131 52.2461 37.1694C52.2763 37.0257 52.2722 36.8769 52.2343 36.7351C51.9472 35.6578 51.5184 34.6234 50.9593 33.6589C50.886 33.5327 50.7843 33.4254 50.6622 33.3454C50.5402 33.2655 50.4011 33.2151 50.2562 33.1984L47.4765 32.889C47.3609 32.7671 47.2437 32.6499 47.1249 32.5374L46.7968 29.7507C46.7799 29.6056 46.7294 29.4665 46.6492 29.3445C46.5691 29.2224 46.4615 29.1207 46.3351 29.0476C45.3706 28.4889 44.3362 28.0609 43.2589 27.7749C43.1171 27.737 42.9683 27.733 42.8246 27.7631C42.6809 27.7932 42.5463 27.8567 42.4316 27.9484L40.2531 29.6874H39.7468L37.5624 27.9425C37.4477 27.8508 37.3131 27.7874 37.1694 27.7572C37.0257 27.7271 36.8769 27.7312 36.7351 27.7691C35.6578 28.0562 34.6234 28.485 33.6589 29.0441C33.5327 29.1173 33.4254 29.2191 33.3454 29.3411C33.2655 29.4632 33.2151 29.6022 33.1984 29.7472L32.889 32.5316C32.7671 32.648 32.6499 32.7652 32.5374 32.8831L29.7507 33.2031C29.6056 33.2199 29.4665 33.2705 29.3445 33.3506C29.2224 33.4308 29.1207 33.5384 29.0476 33.6648C28.489 34.6294 28.0607 35.6638 27.7738 36.7409C27.736 36.8829 27.7322 37.0317 27.7625 37.1754C27.7928 37.3191 27.8565 37.4537 27.9484 37.5683L29.6874 39.7468V40.2531L27.9425 42.4374C27.8508 42.5521 27.7874 42.6867 27.7572 42.8304C27.7271 42.9741 27.7312 43.1229 27.7691 43.2648C28.0562 44.342 28.485 45.3764 29.0441 46.3409C29.1173 46.4671 29.2191 46.5745 29.3411 46.6544C29.4632 46.7344 29.6022 46.7847 29.7472 46.8015L32.5269 47.1109C32.6433 47.2327 32.7605 47.3499 32.8784 47.4624L33.2031 50.2492C33.2199 50.3942 33.2705 50.5333 33.3506 50.6554C33.4308 50.7775 33.5384 50.8791 33.6648 50.9523C34.6294 51.5109 35.6638 51.9392 36.7409 52.2261C36.8829 52.2638 37.0317 52.2677 37.1754 52.2374C37.3191 52.207 37.4537 52.1434 37.5683 52.0515L39.7468 50.3124C39.9156 50.3171 40.0843 50.3171 40.2531 50.3124L42.4374 52.0609C42.5521 52.1525 42.6867 52.216 42.8304 52.2461C42.9741 52.2763 43.1229 52.2722 43.2648 52.2343C44.3422 51.9477 45.3767 51.5189 46.3409 50.9593C46.4671 50.886 46.5745 50.7843 46.6544 50.6622C46.7344 50.5402 46.7847 50.4011 46.8015 50.2562L47.1109 47.4765C47.2327 47.3609 47.3499 47.2437 47.4624 47.1249L50.2492 46.7968C50.3942 46.7799 50.5333 46.7294 50.6554 46.6492C50.7775 46.5691 50.8791 46.4615 50.9523 46.3351C51.5109 45.3704 51.9392 44.3361 52.2261 43.2589C52.2638 43.117 52.2677 42.9681 52.2374 42.8244C52.207 42.6807 52.1434 42.5462 52.0515 42.4316L50.3124 40.2531ZM39.9999 44.6874C39.0728 44.6874 38.1666 44.4125 37.3957 43.8974C36.6248 43.3824 36.024 42.6503 35.6692 41.7938C35.3145 40.9372 35.2216 39.9947 35.4025 39.0854C35.5834 38.1762 36.0298 37.3409 36.6854 36.6854C37.3409 36.0298 38.1762 35.5834 39.0854 35.4025C39.9947 35.2216 40.9372 35.3145 41.7938 35.6692C42.6503 36.024 43.3824 36.6248 43.8974 37.3957C44.4125 38.1666 44.6874 39.0728 44.6874 39.9999C44.6874 41.2431 44.1936 42.4354 43.3145 43.3145C42.4354 44.1936 41.2431 44.6874 39.9999 44.6874Z" fill="#FA8A52"/>
</svg>
