<svg width="29" height="29" viewBox="0 0 29 29" fill="none" xmlns="http://www.w3.org/2000/svg">
<path d="M16.4454 14.7934C16.4381 15.1762 16.3173 15.5482 16.0984 15.8623C15.8794 16.1763 15.5722 16.4183 15.2155 16.5575C14.8589 16.6968 14.4689 16.727 14.0951 16.6443C13.7213 16.5617 13.3804 16.3699 13.1157 16.0933C12.851 15.8167 12.6744 15.4678 12.6082 15.0907C12.542 14.7136 12.5893 14.3254 12.7441 13.9752C12.8988 13.625 13.154 13.3286 13.4774 13.1237C13.8007 12.9187 14.1777 12.8143 14.5604 12.8238C15.069 12.8427 15.5503 13.0589 15.9022 13.4265C16.2541 13.7942 16.4489 14.2845 16.4454 14.7934Z" fill="white"/>
<path d="M17.8385 8.74023H11.2833C10.6347 8.74023 10.0126 8.9979 9.55397 9.45655C9.09531 9.91521 8.83765 10.5373 8.83765 11.1859V17.8885C8.83765 18.2097 8.90091 18.5277 9.02381 18.8244C9.14672 19.1212 9.32686 19.3908 9.55397 19.6179C9.78107 19.845 10.0507 20.0251 10.3474 20.148C10.6441 20.2709 10.9621 20.3342 11.2833 20.3342H17.8385C18.1597 20.3342 18.4777 20.2709 18.7744 20.148C19.0712 20.0251 19.3408 19.845 19.5679 19.6179C19.795 19.3908 19.9751 19.1212 20.098 18.8244C20.2209 18.5277 20.2842 18.2097 20.2842 17.8885V11.198C20.2855 10.8759 20.2232 10.5567 20.1009 10.2587C19.9785 9.96076 19.7986 9.68985 19.5714 9.46153C19.3442 9.23321 19.0742 9.05197 18.7769 8.9282C18.4795 8.80443 18.1606 8.74055 17.8385 8.74023ZM14.5603 18.0722C13.9114 18.0868 13.2728 17.9078 12.7261 17.5579C12.1794 17.2081 11.7493 16.7032 11.4908 16.1079C11.2322 15.5125 11.1569 14.8536 11.2745 14.2153C11.3921 13.5769 11.6972 12.9881 12.1509 12.5239C12.6046 12.0597 13.1863 11.7413 13.8218 11.6091C14.4573 11.477 15.1178 11.5373 15.7189 11.7822C16.32 12.027 16.8345 12.4455 17.1968 12.9841C17.559 13.5227 17.7526 14.157 17.7527 14.8061C17.758 15.2303 17.6796 15.6513 17.5219 16.0452C17.3642 16.439 17.1304 16.7979 16.8339 17.1012C16.5374 17.4046 16.1839 17.6465 15.7938 17.8131C15.4037 17.9797 14.9845 18.0678 14.5603 18.0722ZM18.108 11.5412C18.0282 11.5412 17.9493 11.5253 17.8758 11.4944C17.8023 11.4635 17.7357 11.4183 17.6799 11.3614C17.624 11.3044 17.5802 11.2369 17.5508 11.1628C17.5214 11.0887 17.507 11.0095 17.5086 10.9297C17.5086 10.7676 17.5731 10.6121 17.6877 10.4974C17.8024 10.3827 17.9579 10.3183 18.1201 10.3183C18.2822 10.3183 18.4377 10.3827 18.5524 10.4974C18.6671 10.6121 18.7315 10.7676 18.7315 10.9297C18.7339 11.0161 18.7176 11.1019 18.6838 11.1813C18.6499 11.2608 18.5993 11.3319 18.5354 11.39C18.4715 11.4481 18.3957 11.4916 18.3134 11.5177C18.2311 11.5438 18.1441 11.5518 18.0584 11.5412H18.108Z" fill="white"/>
<path d="M14.5602 2.41714C11.3555 2.40112 8.27565 3.65881 5.99826 5.91355C3.72086 8.16828 2.43243 11.2354 2.41641 14.4401C2.40039 17.6448 3.65808 20.7246 5.91282 23.002C8.16755 25.2794 11.2346 26.5678 14.4393 26.5838C16.0261 26.5917 17.599 26.2871 19.068 25.6871C20.5371 25.0872 21.8736 24.2038 23.0012 23.0874C24.1289 21.971 25.0256 20.6434 25.6402 19.1804C26.2547 17.7174 26.5751 16.1477 26.5831 14.5609C26.591 12.9741 26.2863 11.4013 25.6864 9.9322C25.0865 8.46315 24.2031 7.12664 23.0867 5.99899C21.9702 4.87134 20.6426 3.97463 19.1797 3.36005C17.7167 2.74548 16.147 2.42508 14.5602 2.41714ZM21.8984 17.7654C21.9017 18.3075 21.7975 18.8449 21.5916 19.3464C21.3857 19.8479 21.0824 20.3035 20.6991 20.6869C20.3158 21.0703 19.8603 21.3738 19.3588 21.5798C18.8574 21.7858 18.3201 21.8902 17.778 21.887H11.3448C10.8027 21.8904 10.2653 21.7861 9.76381 21.5803C9.26231 21.3744 8.80666 21.071 8.42328 20.6878C8.03989 20.3045 7.7364 19.8489 7.53039 19.3475C7.32438 18.846 7.21995 18.3087 7.22316 17.7666V11.3322C7.21979 10.7901 7.32406 10.2528 7.52993 9.75125C7.73579 9.24975 8.03915 8.7941 8.42242 8.41072C8.80569 8.02733 9.26125 7.72384 9.76269 7.51783C10.2641 7.31182 10.8015 7.20739 11.3436 7.2106H17.778C18.32 7.20739 18.8572 7.31178 19.3586 7.51772C19.8599 7.72365 20.3154 8.02704 20.6987 8.41029C21.0819 8.79355 21.3853 9.24906 21.5913 9.75042C21.7972 10.2518 21.9016 10.789 21.8984 11.331V17.7654Z" fill="white"/>
</svg>
