<svg width="29" height="29" viewBox="0 0 29 29" fill="none" xmlns="http://www.w3.org/2000/svg">
<path d="M14.8143 2.41699C7.96722 2.41699 2.41675 7.96746 2.41675 14.8145C2.41675 21.6615 7.96722 27.212 14.8143 27.212C21.6613 27.212 27.2118 21.6615 27.2118 14.8145C27.2118 7.96746 21.6613 2.41699 14.8143 2.41699ZM11.7795 19.953H9.26896V11.874H11.7795V19.953ZM10.5087 10.8822C9.71578 10.8822 9.20309 10.3204 9.20309 9.62563C9.20309 8.91665 9.73128 8.37167 10.541 8.37167C11.3507 8.37167 11.8466 8.91665 11.8621 9.62563C11.8621 10.3204 11.3507 10.8822 10.5087 10.8822ZM20.9484 19.953H18.4379V15.4757C18.4379 14.4335 18.0738 13.7258 17.1659 13.7258C16.4724 13.7258 16.0605 14.205 15.8784 14.666C15.8112 14.83 15.7944 15.0625 15.7944 15.2936V19.9517H13.2826V14.4503C13.2826 13.4417 13.2504 12.5984 13.2168 11.8727H15.398L15.5129 12.9949H15.5633C15.8939 12.468 16.7036 11.6906 18.0583 11.6906C19.71 11.6906 20.9484 12.7973 20.9484 15.1761V19.953Z" fill="white"/>
</svg>
