<svg width="34" height="38" viewBox="0 0 34 38" fill="none" xmlns="http://www.w3.org/2000/svg">
<g clip-path="url(#clip0_376_10131)">
<path d="M19.6758 17.152C18.7369 18.0214 18.8217 18.5224 17.8312 18.8606C17.5826 18.9442 17.2774 19.0352 16.8873 19.1151C16.6578 18.4847 16.0806 17.8587 15.4702 17.8587C15.0477 17.8587 14.5587 18.0547 13.9957 18.276C13.3345 18.535 12.7291 18.8317 12.5361 18.9442L12.7948 19.2527C12.9919 19.1565 13.5599 18.9057 14.1279 18.6889C14.6211 18.5009 15.0668 18.3463 15.3662 18.3463C15.8502 18.3463 16.1646 18.8354 16.3384 19.2276C15.7047 19.3615 14.6627 19.3941 14.3483 19.3941C14.2028 19.3941 14.1504 19.4155 14.0996 19.4533C14.0522 19.491 14.0148 19.5568 13.9915 19.6493L13.9541 19.7914H14.2917C16.0465 19.7914 17.7048 19.545 18.7702 18.9686C18.9207 19.0056 19.0521 19.0307 19.2209 19.0307C19.8305 19.0307 20.4609 18.7348 20.8543 18.4632C20.9956 18.367 21.0281 18.2797 21.0281 18.1835C21.0281 18.1376 21.0231 18.0954 21.0181 18.0533L20.9998 17.8905C20.4368 18.2871 19.9677 18.5838 19.3856 18.5838C19.2825 18.5838 19.2068 18.5757 19.1461 18.5587C19.7141 17.7484 20.2214 17.0299 21.4655 16.4454C21.3341 16.3743 21.1462 16.2655 21.048 16.2071C20.5632 16.3958 20.0842 16.7717 19.6758 17.152Z" fill="#63513D"/>
<path d="M17.7402 17.3941C17.341 17.3941 17.3785 16.788 17.3502 16.3086C15.9422 16.4292 15.0598 16.8014 14.0918 17.2646L14.2049 17.6486C15.0823 17.181 15.9272 16.9138 16.8238 16.8347C16.8337 17.2934 17.0541 17.9083 17.6413 17.9083C18.27 17.9083 19.0343 17.0308 19.9316 16.003L20.167 15.7314C20.0447 15.6478 19.9092 15.5723 19.8243 15.502C18.9045 16.555 18.107 17.3941 17.7402 17.3941Z" fill="#63513D"/>
<path d="M15.2827 10.8702C15.0523 10.9117 14.8835 10.9494 14.6814 10.9494C14.55 10.9494 14.3994 10.9324 14.2215 10.8954C14.0851 10.8658 13.9395 10.8406 13.7341 10.8406C13.3632 10.8406 12.964 10.9657 12.6912 11.1995C12.1931 11.6213 12.1656 12.0764 12.1324 12.4811C12.0908 13.0205 11.9777 13.1545 11.65 13.5466C11.3822 13.8678 11.0155 14.2903 10.7344 14.7372C10.8242 14.7742 11.1194 14.9163 11.2226 14.9666C11.5461 14.533 11.9968 13.998 12.2921 13.5925C12.5598 13.2255 12.668 13.0664 12.6863 12.5736C12.6912 12.49 12.6912 12.4108 12.7004 12.3309C12.7245 12.0764 12.7994 11.8174 13.0721 11.5791C13.2734 11.3986 13.5645 11.3076 13.8564 11.3076C14.1375 11.3076 14.3021 11.3786 14.5458 11.3786C14.7196 11.3786 14.8469 11.3409 14.9583 11.3039L15.0481 11.2743L14.8319 11.7338L15.3384 11.9173C15.0149 12.0963 14.3055 12.8688 14.3055 13.7842C14.3055 14.1134 14.362 14.4183 14.4419 14.6899C14.451 14.7187 14.4693 14.7483 14.5209 14.7483C14.5683 14.7483 14.6015 14.7232 14.6057 14.678L14.6107 14.5818C14.6257 14.3021 14.6481 13.8596 14.7745 13.463C14.9858 12.7949 15.5538 12.1681 16.1226 11.867L15.3151 11.554L15.6619 10.7977L15.2827 10.8702Z" fill="#63513D"/>
<path d="M17.7222 7.82593C17.417 7.82593 17.333 8.0886 17.333 8.2351C17.333 8.352 17.3796 8.49037 17.5442 8.49037C17.6798 8.49037 17.8486 8.40306 17.98 8.30613C18.1072 8.21438 18.1912 8.13965 18.1912 8.06418C18.1912 7.99389 18.1164 7.92656 18.0033 7.88068C17.9251 7.84665 17.8261 7.82593 17.7222 7.82593Z" fill="#63513D"/>
<path d="M15.8514 13.1296L15.626 13.5144H18.0244L17.8465 13.1296H15.8514Z" fill="#63513D"/>
<path d="M13.0808 9.58841C13.2072 9.52108 13.3153 9.42563 13.3153 9.325C13.3153 9.27913 13.2928 9.23325 13.2404 9.19108C13.1515 9.11635 13.0292 9.07861 12.9261 9.07861C12.6907 9.07861 12.5693 9.27469 12.5693 9.45449C12.5693 9.59211 12.645 9.67128 12.7897 9.67128C12.8787 9.67202 12.9826 9.63798 13.0808 9.58841Z" fill="#63513D"/>
<path d="M27.0339 17.2528L27.2634 17.3949C27.2959 17.4156 27.32 17.4282 27.3483 17.4282C27.3957 17.4282 27.4281 17.3867 27.4281 17.3534C27.4281 17.3327 27.4181 17.3113 27.3907 17.2906C26.7046 16.7349 25.9677 16.0585 25.2774 15.4066C24.7377 14.8931 24.1838 14.3507 23.6957 13.8032C23.6624 13.7654 23.6349 13.7484 23.5967 13.7484C23.541 13.7484 23.5127 13.7817 23.5127 13.8194C23.5127 13.8779 23.5593 13.9482 23.6765 14.1243C24.0325 14.663 24.4741 15.2061 25.0188 15.7152C25.606 16.2702 26.2962 16.7881 27.0339 17.2528Z" fill="#63513D"/>
<path d="M24.0746 24.7995H23.5158C23.3702 24.7995 23.2721 24.8454 23.2014 24.9209C23.1448 24.983 23.1074 25.0629 23.1074 25.1717V30.6384C23.1074 30.7472 23.1448 30.8264 23.2014 30.8893C23.2721 30.9648 23.3702 31.0106 23.5158 31.0106H24.0746C24.2202 31.0106 24.3183 30.9648 24.389 30.8893C24.4455 30.8271 24.483 30.7472 24.483 30.6384V25.1717C24.483 25.0629 24.4455 24.9837 24.389 24.9209C24.3183 24.8454 24.2202 24.7995 24.0746 24.7995Z" fill="#63513D"/>
<path d="M14.3732 11.8977C14.3732 11.8438 14.3458 11.789 14.2751 11.7476C14.1962 11.6973 14.0973 11.6766 14.0083 11.6766C13.8105 11.6766 13.7316 11.7809 13.6933 11.8896C13.6751 11.9399 13.6709 11.9894 13.6709 12.0316C13.6709 12.1817 13.7457 12.286 13.8679 12.286C14.0358 12.286 14.3732 12.0774 14.3732 11.8977Z" fill="#63513D"/>
<path d="M7.88161 17.0272L7.9157 17.2062C7.92901 17.2817 7.96228 17.3439 8.03213 17.3735C8.11696 17.4112 8.23921 17.4156 8.45045 17.4156C8.9852 17.4156 9.37524 17.3572 9.60062 17.3069C10.1778 18.0705 10.9712 18.3635 11.7363 18.3635C12.3891 18.3635 13.0503 18.1504 13.684 17.8411L13.5659 17.4608C12.9472 17.7708 12.3043 17.975 11.7363 17.975C11.1026 17.975 10.5387 17.7323 10.0697 17.1019C9.87257 16.8355 9.71788 16.5011 9.5291 16.2043C9.30372 15.8536 9.06005 15.6656 8.63341 15.6656C8.24337 15.6656 7.86331 15.8085 7.45996 15.9624L7.47826 16.0415C7.51069 16.171 7.56808 16.2628 7.70447 16.2628C7.76518 16.2628 7.82672 16.2376 7.85915 16.2295C8.08453 16.1666 8.24836 16.1126 8.47873 16.1126C8.83052 16.1126 8.99934 16.2961 9.23885 16.7475L9.32867 16.9147C9.08417 16.9887 8.51199 17.0272 8.08536 17.0272H7.88161Z" fill="#63513D"/>
<path d="M27.498 26.3741C25.8688 26.3741 24.9531 27.5063 24.9531 28.7005C24.9531 29.9747 25.9345 31.0943 27.5063 31.0943C28.2914 31.0943 29.0606 30.8309 29.5022 30.3677C29.6943 30.1664 29.8499 29.8867 29.8499 29.7158C29.8499 29.6573 29.8357 29.607 29.7983 29.57C29.7609 29.5278 29.7043 29.5027 29.6062 29.5027H28.8511C28.7005 29.5027 28.5974 29.5522 28.5217 29.6536C28.3013 29.9414 27.9828 30.0924 27.5129 30.0924C26.8085 30.0924 26.3528 29.6159 26.3204 29.0935H29.597C29.7417 29.0935 29.8465 29.0646 29.9164 29.0017C29.9962 28.9351 30.0337 28.8389 30.0337 28.6599C30.0337 28.1123 29.8415 27.544 29.4374 27.1104C29.0232 26.6709 28.3853 26.3741 27.498 26.3741ZM26.3287 28.2033C26.3902 27.6898 26.8318 27.3057 27.5021 27.3057C28.16 27.3057 28.6149 27.6898 28.6764 28.2033H26.3287Z" fill="#63513D"/>
<path d="M25.5764 8.82386H25.652C25.652 8.85272 25.6471 8.88676 25.6471 8.91562C25.6471 9.38771 25.9198 9.73844 26.591 9.73844C27.0035 9.73844 27.6522 9.55419 28.2618 9.37069C28.7682 9.21604 29.2331 9.05769 29.4635 8.99923V8.49755C29.2007 8.56858 28.6659 8.75209 28.1121 8.92302C27.5299 9.10282 26.9569 9.26635 26.6234 9.26635C26.2575 9.26635 26.1544 9.08655 26.1544 8.83126C26.1544 8.30516 26.5253 7.54967 26.7598 7.11902H26.1918C25.8965 7.62884 24.7322 9.26191 24.1035 9.93823L24.4645 10.2853C24.8013 9.95155 25.1722 9.38327 25.5764 8.82386Z" fill="#63513D"/>
<path d="M21.6059 8.81594C21.1318 8.41044 20.7709 7.95094 20.5405 7.72969C20.0282 7.23244 19.3671 6.61829 18.2785 6.61829C17.2264 6.61829 16.532 7.228 16.3066 7.75485C16.2401 7.9058 16.1894 8.08857 16.142 8.1559C16.0388 8.30611 15.5739 9.01202 15.3818 9.29173H16.2501L15.8276 10.0021C16.3199 9.90514 16.6717 9.83411 17.1416 9.83411C17.5591 9.83411 17.8601 9.92216 17.9915 10.156C18.236 10.5903 18.236 11.9052 18.6485 12.896C19.0328 13.8276 19.9725 14.7385 21.0287 15.4348L21.0753 15.4481C21.1269 15.4481 21.1593 15.4141 21.1593 15.3808C21.1593 15.3556 21.1501 15.3393 21.1269 15.3179C20.2436 14.5328 19.5259 13.6641 19.1417 12.7118C18.7616 11.7846 18.8224 10.4816 18.4889 9.9007C18.2685 9.51667 17.7994 9.41604 17.367 9.41604C17.0202 9.41604 16.6958 9.47893 16.5453 9.50779L16.9262 8.93507H16.2825C16.4181 8.72196 16.5603 8.52588 16.6301 8.40896C16.6908 8.30833 16.715 8.18328 16.7898 8.01235C17.0343 7.46479 17.5741 7.11775 18.2785 7.11775C19.1608 7.11775 19.6773 7.62314 20.1896 8.12926C20.4241 8.36235 20.81 8.85145 21.2549 9.21477C21.5601 9.46561 22.1415 9.74457 23.038 10.5681C23.5553 11.0439 24.1557 11.6625 24.7894 12.4898C27.0565 15.4429 28.5451 18.0446 29.3751 20.0743L29.361 20.0824C26.9808 18.6454 24.9208 17.2884 23.2584 15.6139C22.0799 14.4233 21.057 13.0455 20.1646 11.2859C20.1039 11.1697 20.0515 11.0609 19.995 10.9485C19.9725 10.9026 19.9484 10.89 19.911 10.89C19.8636 10.89 19.8303 10.9189 19.8303 10.9603C19.8303 11.0062 19.8544 11.1068 19.9052 11.3066C20.38 13.1276 21.694 14.7607 23.0979 16.1185C24.4967 17.4674 26.0793 18.6292 27.3792 19.472L28.3938 22.0536C28.4171 22.1165 28.4445 22.1824 28.4445 22.246C28.4445 22.2919 28.4312 22.3296 28.3988 22.3548C28.3705 22.3792 28.3331 22.3925 28.2482 22.3925H27.943C27.8116 22.3925 27.7601 22.3755 27.7135 22.3422C27.6661 22.3089 27.6328 22.2586 27.6104 22.2002C27.5214 21.9582 26.985 20.6004 26.8827 20.3251C26.8644 20.2748 26.8311 20.2585 26.7937 20.2585C26.7471 20.2585 26.7147 20.2918 26.7147 20.3296C26.7147 20.3629 26.7288 20.4006 26.7521 20.5175C26.8877 21.1354 27.0473 21.8294 27.113 22.0921C27.1422 22.2142 27.1746 22.3267 27.1746 22.4103C27.1746 22.485 27.1555 22.5272 27.0856 22.5894L26.7704 22.8735C26.6956 22.9408 26.654 22.9571 26.5924 22.9571C26.5168 22.9571 26.456 22.912 26.4278 22.7951C26.071 21.3122 25.5313 19.4734 25.3907 18.9643C25.3574 18.8511 25.3342 18.7882 25.2593 18.7882C25.1936 18.7882 25.1695 18.8304 25.1695 18.8807C25.1695 18.9185 25.1786 18.9643 25.1845 18.9976C25.2685 19.5238 25.6111 21.4417 25.982 23.1917C26.0477 23.4928 26.1741 23.6593 26.466 23.6593C26.5974 23.6593 26.7238 23.6135 26.8411 23.5121C27.0332 23.3412 27.0898 23.2953 27.3201 23.0947C27.4848 22.9527 27.5971 22.8942 27.8782 22.8942H28.5734C28.7373 22.8942 28.8271 22.8572 28.9061 22.7899C28.9818 22.727 29.0283 22.6397 29.0283 22.5146C29.0283 22.3859 28.9909 22.2808 28.9393 22.1513C28.7614 21.7258 28.1884 20.2852 28.0204 19.8797L28.0337 19.8715C28.6208 20.2681 29.4749 20.7735 29.8508 20.7735C29.9673 20.7735 30.038 20.7276 30.038 20.5649C30.038 19.7961 28.6017 16.635 25.32 12.2826C23.5736 9.96434 22.0383 9.18295 21.6059 8.81594Z" fill="#63513D"/>
<path d="M25.7233 11.7143C26.3154 11.4967 26.8452 11.3554 27.3234 11.3554C27.9945 11.3554 28.5442 11.3554 29.464 11.163V10.779C28.9476 10.8626 28.3987 10.9625 28.0419 10.9625C27.8307 10.9625 27.7691 10.9373 27.7691 10.8752C27.7691 10.8382 27.7974 10.8123 27.8773 10.7834C28.4403 10.5703 29.4499 10.2107 30.0321 10.0228V9.51367C28.8628 9.89771 26.8119 10.6532 25.4131 11.3302C25.4513 11.3709 25.6958 11.6765 25.7233 11.7143Z" fill="#63513D"/>
<path d="M9.67858 11.6472C9.01742 12.3443 8.66979 12.9088 8.0918 14.1616C8.18577 14.1527 8.32216 14.1446 8.47269 14.1446C8.54837 14.1446 8.60908 14.1446 8.70722 14.149L8.77707 14.0151C9.10142 13.3965 9.53803 12.5618 10.1485 11.9188L10.3597 11.6975C10.9893 11.0412 11.3785 10.6527 11.623 9.75962C11.7078 9.44218 11.7777 9.15804 12.0172 8.95381C12.2334 8.7703 12.5062 8.69039 12.7823 8.69039C13.0168 8.69039 13.1915 8.7407 13.4443 8.83616C13.6738 8.92347 13.7586 8.94049 14.0031 8.94049C14.0871 8.94049 14.1479 8.93605 14.2044 8.93235L13.8759 9.32526L14.3217 9.60497C13.7628 9.75074 13.4667 10.2317 13.3686 10.4529C13.3503 10.4988 13.3403 10.5277 13.3403 10.5573C13.3403 10.5906 13.3594 10.6239 13.4152 10.6239C13.4767 10.6239 13.5233 10.5824 13.6031 10.4988C13.8759 10.2058 14.0921 10.006 15.0959 9.72632L14.3865 9.24979L14.9221 8.55276H14.4198C14.1013 8.55276 13.89 8.54832 13.6123 8.43584C13.2364 8.2812 13.0443 8.2146 12.7108 8.2146C12.3024 8.2146 11.9315 8.34409 11.6263 8.59419C11.2745 8.88277 11.1656 9.26755 11.0392 9.68858C10.941 10.0149 10.8229 10.3738 10.561 10.7038C10.3406 10.9835 10.1817 11.1211 9.67858 11.6472Z" fill="#63513D"/>
<path d="M5.62031 10.0805C4.47015 10.0805 3.98197 10.5733 3.98197 10.9033C3.63933 11.0291 3.41895 11.3673 3.41895 11.6803C3.41895 12.3026 3.93041 12.7458 4.60654 12.7458C4.83191 12.7458 5.06228 12.6659 5.22196 12.5579C5.33922 12.5949 5.48891 12.6156 5.6436 12.6156C5.96794 12.6156 6.32888 12.5149 6.58336 12.1857C6.62079 12.1901 6.65405 12.1901 6.69148 12.1901C7.10397 12.1901 7.46158 11.9474 7.6487 11.63C7.69527 11.5515 7.7144 11.4879 7.7144 11.4428C7.7144 11.3969 7.69112 11.3591 7.63955 11.3591C7.57385 11.3591 7.56387 11.4139 7.44661 11.5094C7.18381 11.7225 6.78046 11.8024 6.36713 11.8024C6.16504 12.0651 5.91638 12.2034 5.63029 12.2034C5.41906 12.2034 5.25522 12.1531 5.08557 12.0532C4.94918 12.1871 4.78035 12.2412 4.61652 12.2412C4.2456 12.2412 3.9828 12.011 3.9828 11.6766C3.9828 11.4428 4.15163 11.2341 4.38615 11.1542C4.42773 10.7405 4.92506 10.4608 5.54547 10.4608C5.6253 10.4608 5.70514 10.4645 5.78997 10.4734C5.88395 10.3402 6.10932 10.1982 6.42868 10.1604C6.49438 10.1523 6.54511 10.1478 6.58336 10.1316C6.62079 10.1145 6.63908 10.0813 6.63908 10.0443C6.63908 10.011 6.62494 9.98136 6.58835 9.96064C6.55592 9.94362 6.49853 9.93548 6.43367 9.92364C6.1376 9.87333 5.78581 9.71054 5.60701 9.31392C4.89761 9.31392 4.37783 8.8078 4.37783 8.24026V8.20178C4.14248 8.11816 3.98363 7.91764 3.98363 7.68011C3.98363 7.36638 4.26057 7.11627 4.61236 7.11627C4.8236 7.11627 5.00656 7.20803 5.12465 7.34566C5.22279 7.3205 5.33506 7.31236 5.44317 7.31236C5.96878 7.31236 6.53263 7.60908 6.63991 8.1855C7.31604 8.24026 7.47572 8.74934 7.51896 8.96245C7.54142 9.07122 7.56055 9.16297 7.64122 9.16297C7.72521 9.16297 7.74434 9.07936 7.77262 8.96689C7.82418 8.75304 7.91317 8.58211 8.09197 8.44892C8.09197 7.9021 8.55187 7.43001 9.20471 7.43001C9.30285 7.23762 9.51908 7.10443 9.77689 7.10443C10.1295 7.10443 10.4106 7.3464 10.4106 7.66828C10.4106 7.85622 10.3125 8.01901 10.1569 8.1189C10.1902 8.22768 10.2127 8.32387 10.2127 8.41562C10.2127 8.7671 9.97815 9.01276 9.54652 9.14226C9.48997 9.3561 9.38684 9.54775 9.21802 9.68982C8.93609 9.93252 8.65 9.93252 8.65 10.0324C8.65 10.0864 8.69159 10.1205 8.80968 10.1205C9.33112 10.1205 9.84259 9.86075 9.9033 9.43084C10.4015 9.28063 10.7017 8.83296 10.7017 8.47852C10.7017 8.38677 10.6925 8.30759 10.6501 8.23212C10.7865 8.11594 10.9462 7.91542 10.9462 7.6187C10.9462 7.35972 10.8189 7.09703 10.5944 6.90391C10.394 6.7315 10.117 6.61829 9.79352 6.61829C9.32447 6.61829 9.01926 6.84397 8.84461 7.06522C8.33315 7.06522 7.67199 7.5706 7.67199 8.29353H7.6013C7.55473 8.04269 7.26282 7.8762 7.01998 7.86288C6.82204 7.33678 6.37628 6.88615 5.6436 6.88615C5.5596 6.88615 5.45648 6.89059 5.36666 6.90243C5.15043 6.72706 4.91175 6.61829 4.57826 6.61829C3.93956 6.61829 3.41895 7.07336 3.41895 7.64978C3.41895 8.00939 3.60191 8.25506 3.94954 8.47334L3.94455 8.54068C3.94455 8.99944 4.50757 9.71794 5.34338 9.71794C5.34338 9.83485 5.50721 9.99394 5.691 10.0228V10.0813H5.62031V10.0805Z" fill="#63513D"/>
<path d="M18.248 28.3411L17.1827 28.0984C16.7411 27.9985 16.5348 27.9267 16.5348 27.6855C16.5348 27.451 16.7702 27.263 17.3141 27.263C17.6334 27.263 17.9245 27.3259 18.1125 27.5013C18.2672 27.647 18.2389 27.7225 18.3611 27.781C18.4368 27.8143 18.5208 27.8143 18.6522 27.8143H19.1828C19.2676 27.8143 19.3283 27.8017 19.3749 27.7558C19.4132 27.7181 19.4356 27.6596 19.4356 27.5634C19.4356 27.3459 19.2768 27.0662 18.9949 26.8531C18.6189 26.5652 18.0276 26.3736 17.3141 26.3736C16.0284 26.3736 15.1834 26.9167 15.1834 27.7847C15.1834 28.094 15.3098 28.3441 15.5161 28.5402C15.7556 28.7703 16.0982 28.9294 16.5956 29.0419L17.6709 29.2831C17.9661 29.3504 18.2297 29.4303 18.2297 29.659C18.2297 30.0141 17.8073 30.1348 17.3557 30.1348C17.1353 30.1348 16.9058 30.0978 16.7178 30.0141C16.5864 29.9557 16.4741 29.8728 16.3935 29.7596C16.3236 29.6634 16.2995 29.5924 16.1922 29.5384C16.1265 29.5043 16.0467 29.5006 15.9386 29.5006H15.3564C15.23 29.5006 15.1693 29.5339 15.1269 29.5798C15.0844 29.6257 15.0703 29.6923 15.0703 29.7596C15.0703 29.9261 15.136 30.1348 15.2907 30.3234C15.6475 30.7489 16.3935 31.0923 17.3465 31.0923C18.2855 31.0923 19.5853 30.7452 19.5853 29.6257C19.5853 29.3371 19.4913 29.0907 19.3184 28.8902C19.0971 28.6378 18.7828 28.4632 18.248 28.3411Z" fill="#63513D"/>
<path d="M7.52832 10.1388C7.77683 10.4605 8.19405 11.0824 8.58884 11.9091C8.65865 11.8041 8.86976 11.5505 8.95454 11.4706C8.593 10.8191 8.00206 10.1972 7.74358 9.95172L7.52832 10.1388Z" fill="#63513D"/>
<path d="M19.1255 14.905C18.8444 15.0138 18.1966 15.2217 17.5537 15.2217C17.2335 15.2217 16.9665 15.1973 16.6705 15.1633C16.3046 15.1218 15.9569 15.0841 15.6617 15.0841C15.1685 15.0841 14.5581 15.1263 13.9668 15.4977L14.2254 15.7989C14.6288 15.628 15.2816 15.5443 15.6051 15.5443C15.9012 15.5443 16.2056 15.5732 16.4875 15.6065C16.8069 15.6442 17.1778 15.6857 17.567 15.6857C18.4502 15.6857 19.3143 15.2683 19.4498 15.1929C19.3417 15.1093 19.2053 14.9923 19.1255 14.905Z" fill="#63513D"/>
<path d="M13.3987 15.4776L13.1267 15.1638C12.0747 15.5234 10.9062 16.1036 10.9062 16.697C10.9062 17.0352 11.1882 17.3023 11.8211 17.3023C12.7508 17.3023 13.7413 16.8849 14.5356 16.4965L14.4225 16.3588C14.3568 16.2745 14.3002 16.2501 14.2112 16.2501C14.1547 16.2501 14.0931 16.27 14.0424 16.2915C13.3621 16.5882 12.6244 16.8849 11.9392 16.8849C11.5441 16.8849 11.446 16.7769 11.446 16.6252C11.446 16.1997 12.7508 15.7062 13.3987 15.4776Z" fill="#63513D"/>
<path d="M22.4338 26.5332H21.5847V25.1717C21.5847 25.0629 21.5464 24.9837 21.4907 24.9208C21.42 24.8461 21.3211 24.8002 21.1764 24.8002H20.6458C20.5011 24.8002 20.4021 24.8461 20.3314 24.9208C20.2757 24.9837 20.2374 25.0629 20.2374 25.1717V26.5332H19.9746C19.8765 26.5332 19.8008 26.5584 19.7443 26.5998C19.6827 26.6501 19.6553 26.7167 19.6553 26.8166V27.1044C19.6553 27.2051 19.6827 27.2724 19.7443 27.3212C19.8008 27.3634 19.8757 27.3886 19.9746 27.3886H20.2374V29.4723C20.2374 30.0065 20.4021 30.341 20.7073 30.6081C20.9884 30.8545 21.3552 31.0092 21.993 31.0092H22.3922C22.4904 31.0092 22.5652 30.984 22.6218 30.9418C22.6833 30.8922 22.7199 30.8256 22.7199 30.725V30.3617C22.7199 30.2618 22.6825 30.1945 22.6218 30.1449C22.5652 30.1027 22.4904 30.0776 22.3922 30.0776H22.3357C22.082 30.0776 21.9082 30.0191 21.7901 29.9185C21.6496 29.8016 21.5789 29.6225 21.5789 29.3879V27.3878H22.4338C22.5319 27.3878 22.6076 27.3627 22.6633 27.3205C22.7249 27.2709 22.7523 27.2036 22.7523 27.1037V26.8159C22.7523 26.7152 22.7241 26.6486 22.6633 26.5991C22.6085 26.5584 22.5328 26.5332 22.4338 26.5332Z" fill="#63513D"/>
<path d="M29.5704 25.735C29.6685 25.735 29.7434 25.7098 29.7999 25.6676C29.8615 25.6181 29.8889 25.5507 29.8889 25.4508V25.0624C29.8889 24.9114 29.8565 24.8359 29.7999 24.7819C29.7492 24.7323 29.6635 24.7035 29.5704 24.7035C29.4947 24.7035 29.4199 24.7116 29.2934 24.7235L25.5469 25.0535C25.4396 25.0624 25.3872 25.0912 25.3498 25.129C25.3065 25.1711 25.2891 25.2244 25.2891 25.2999V25.5174C25.2891 25.6011 25.3074 25.638 25.3406 25.6721C25.3822 25.7135 25.4437 25.7342 25.5277 25.7342H29.5704V25.735Z" fill="#63513D"/>
<path d="M8.29311 21.7125C7.97875 21.876 7.5887 21.9515 7.24607 21.9515C7.10053 21.9515 7.03483 21.9767 6.98327 22.0225C6.92671 22.0721 6.89844 22.1476 6.89844 22.2519V22.3977H7.0157C7.64443 22.3977 8.22658 22.3104 8.86528 21.8634L10.9444 20.4176C11.2405 20.7187 11.9865 21.1361 12.8688 21.1361C13.367 21.1361 13.6855 21.028 14.1454 20.9237C14.5022 20.8445 14.8498 20.7728 15.6099 20.7728H17.8113C18.9382 20.7728 19.4829 20.5641 20.0834 20.2637C21.3891 19.6118 22.501 18.5092 23.1305 17.2439C22.9659 17.1514 22.8112 17.0678 22.6798 16.9886C21.9754 18.3087 20.905 19.2699 19.8064 19.8249C19.2858 20.0883 18.8159 20.2592 17.8022 20.2592H15.6099C14.8265 20.2592 14.3334 20.351 13.9491 20.4383C13.5358 20.5345 13.2722 20.6307 12.8555 20.6307C12.236 20.6307 11.6621 20.3591 11.3852 20.1001L11.9025 19.7368L11.6446 19.432C11.4941 19.5282 9.65867 20.735 9.27362 21.0066L9.25117 20.994C9.26032 20.9104 9.26032 20.8356 9.26032 20.7609C9.26032 19.8419 8.78129 19.6207 8.0536 19.3617L7.56043 19.6214C8.56007 19.9174 8.80873 20.1556 8.80873 20.8201C8.80873 21.3455 8.59832 21.5541 8.29311 21.7125Z" fill="#63513D"/>
<path d="M3.6069 21.0738C3.95868 21.0738 4.00027 20.8858 4.00027 20.706C4.00027 20.5854 3.99611 20.447 3.99611 20.2968C4.00027 19.9505 4.01524 19.6412 4.64396 19.3904C4.89761 19.2905 6.14093 18.8391 7.06655 18.4884C7.33933 18.3841 7.59215 18.2968 7.87408 18.2968C8.18844 18.2968 8.55021 18.4174 9.00013 18.6564C9.38102 18.8569 9.78022 19.1285 10.0946 19.4415L10.4929 19.1699C10.1503 18.811 9.67626 18.4891 9.20222 18.239C8.72818 17.9889 8.30571 17.8417 7.94893 17.8417C7.79424 17.8417 7.66617 17.8668 7.55889 17.892C7.43164 17.9216 7.31438 17.9549 7.16385 17.9549C6.99087 17.9549 6.8445 17.9179 6.63326 17.7004C6.55426 17.6212 6.04612 17.1077 5.93884 16.9574C5.88644 16.8864 5.7933 16.7436 5.7933 16.5771C5.7933 16.5061 5.80744 16.4225 5.85401 16.3477C6.29062 16.6489 6.83119 16.8324 7.4882 16.9034L7.39838 16.5068C6.45529 16.2856 5.44983 15.5464 5.44983 15.0698C5.44983 14.9692 5.4781 14.8989 5.51969 14.8101C5.88561 15.1113 6.74553 15.425 7.20959 15.425C7.46325 15.425 7.67033 15.3495 7.86659 15.2785C8.05455 15.2119 8.2425 15.146 8.49532 15.146C9.0966 15.146 9.8376 15.4043 10.4904 15.6507C10.5287 15.6633 10.5703 15.6721 10.6119 15.6721C10.7158 15.6721 10.7957 15.63 10.8472 15.5419L10.932 15.4043C10.2143 15.0328 9.06833 14.6355 8.4712 14.6355C8.19925 14.6355 8.00215 14.6984 7.8142 14.765C7.60296 14.8397 7.42 14.9189 7.22706 14.9189C6.75302 14.9189 5.53715 14.5015 5.53715 14.0961C5.53715 13.6195 7.47073 13.436 7.6828 13.436L7.87491 13.0475C6.47192 13.0475 4.80031 13.4856 4.80031 14.0665C4.80031 14.2337 4.90843 14.3166 4.90843 14.4712C4.90843 14.6806 4.80031 14.8227 4.80031 15.0558C4.80031 15.2104 4.90427 15.4065 5.02569 15.5782C5.15709 15.758 5.31261 15.8749 5.31261 16.0258C5.31261 16.1383 5.22778 16.2715 5.22778 16.5349C5.22778 17.0988 5.58954 17.4414 6.29312 18.1132L6.43367 18.2472C5.85151 18.4477 4.76705 18.865 4.51339 18.9612C3.63933 19.2861 3.41895 19.6834 3.41895 20.3102C3.41895 20.5521 3.41895 20.8274 3.43724 21.0738H3.6069Z" fill="#63513D"/>
<path d="M9.51869 8.06317C9.51869 8.02988 9.48542 7.99658 9.43968 7.99658C9.39644 7.99658 9.37399 8.02174 9.33158 8.05134C9.15278 8.18896 8.99312 8.32658 8.82513 8.49824C8.58563 8.73649 8.38438 9.05317 8.21973 9.40019L8.47253 9.53781C8.64634 9.3077 9.20517 8.52266 9.49124 8.12607C9.50871 8.10165 9.51869 8.08019 9.51869 8.06317Z" fill="#63513D"/>
<path d="M19.2992 25.6683C19.36 25.6187 19.3882 25.5513 19.3882 25.4514V25.083C19.3882 24.9831 19.36 24.9157 19.2992 24.8661C19.2427 24.824 19.1678 24.7996 19.0697 24.7996H8.36641C8.18761 24.7996 8.07534 24.8536 7.9955 24.9372C7.9298 25.009 7.89238 25.0874 7.89238 25.225V29.018H7.86826C7.86826 29.018 5.53549 25.3175 5.42238 25.1466C5.34255 25.0245 5.25356 24.9416 5.1363 24.8787C5.01903 24.8203 4.89678 24.7825 4.66226 24.7825H3.89298C3.71418 24.7825 3.60191 24.8365 3.52207 24.9202C3.45637 24.9912 3.41895 25.0711 3.41895 25.2087V30.5837C3.41895 30.7214 3.45637 30.8013 3.52207 30.8723C3.60191 30.9559 3.71418 31.01 3.89298 31.01H4.3296C4.5084 31.01 4.62068 30.9559 4.70051 30.8723C4.76621 30.8013 4.80364 30.7214 4.80364 30.5837V26.7005H4.82776C4.82776 26.7005 7.25034 30.5179 7.34848 30.66C7.48487 30.8597 7.7144 31.0107 8.04374 31.0107H8.79055C8.96853 31.0107 9.0808 30.9567 9.16064 30.8731C9.22717 30.802 9.26376 30.7221 9.26376 30.5845V25.7356H19.0705C19.1678 25.7348 19.2427 25.7097 19.2992 25.6683Z" fill="#63513D"/>
<path d="M12.2734 26.3741C10.6442 26.3741 9.72852 27.5063 9.72852 28.7005C9.72852 29.9747 10.7099 31.0943 12.2817 31.0943C13.0659 31.0943 13.8352 30.8309 14.2768 30.3677C14.4697 30.1664 14.6253 29.8867 14.6253 29.7158C14.6253 29.6573 14.6111 29.607 14.5737 29.57C14.5363 29.5278 14.4797 29.5027 14.3816 29.5027H13.6256C13.4759 29.5027 13.372 29.5522 13.2971 29.6536C13.0767 29.9414 12.7565 30.0924 12.2875 30.0924C11.5839 30.0924 11.1282 29.6159 11.0957 29.0935H14.3633C14.5088 29.0935 14.6119 29.0646 14.6818 29.0017C14.7625 28.9351 14.7999 28.8389 14.7999 28.6599C14.7999 28.1123 14.6078 27.544 14.2036 27.1104C13.7903 26.6709 13.1599 26.3741 12.2734 26.3741ZM11.1041 28.2033C11.1656 27.6898 11.6064 27.3057 12.2775 27.3057C12.9353 27.3057 13.3903 27.6898 13.451 28.2033H11.1041Z" fill="#63513D"/>
<path d="M5.09375 11.4423C5.09375 11.4719 5.11702 11.5089 5.16855 11.5089C5.20097 11.5089 5.22922 11.497 5.29073 11.4756L7.00701 10.958L6.92306 10.7073C6.22408 10.8115 5.7171 10.9705 5.14029 11.3706C5.10705 11.3965 5.09375 11.4135 5.09375 11.4423Z" fill="#63513D"/>
<path d="M6.13687 8.46051C5.87408 8.28071 5.57886 8.13495 5.23125 8.00843L5.17055 7.99585C5.11899 7.99585 5.0957 8.02915 5.0957 8.05874C5.0957 8.0839 5.10485 8.10462 5.14726 8.13791C5.55558 8.44645 6.34477 9.03616 6.58843 9.21522L6.78468 9.0147C6.57346 8.79421 6.35641 8.61071 6.13687 8.46051Z" fill="#63513D"/>
</g>
<defs>
<clipPath id="clip0_376_10131">
<rect width="32.9364" height="37.9267" fill="white" transform="translate(0.446289)"/>
</clipPath>
</defs>
</svg>
