<svg width="35" height="35" viewBox="0 0 35 35" fill="none" xmlns="http://www.w3.org/2000/svg">
<path d="M9.47917 10.9373C9.47917 8.81008 10.3242 6.76995 11.8284 5.26575C13.3326 3.76155 15.3727 2.9165 17.5 2.9165C19.6273 2.9165 21.6674 3.76155 23.1716 5.26575C24.6758 6.76995 25.5208 8.81008 25.5208 10.9373C25.5208 13.0646 24.6758 15.1047 23.1716 16.6089C21.6674 18.1131 19.6273 18.9582 17.5 18.9582C15.3727 18.9582 13.3326 18.1131 11.8284 16.6089C10.3242 15.1047 9.47917 13.0646 9.47917 10.9373ZM4.375 27.7082C4.375 25.7743 5.14323 23.9196 6.51068 22.5522C7.87813 21.1847 9.7328 20.4165 11.6667 20.4165H23.3333C25.2672 20.4165 27.1219 21.1847 28.4893 22.5522C29.8568 23.9196 30.625 25.7743 30.625 27.7082V32.0832H4.375V27.7082Z" fill="#EA5B54"/>
</svg>
