<svg width="266" height="258" viewBox="0 0 266 258" fill="none" xmlns="http://www.w3.org/2000/svg">
<g clip-path="url(#clip0_59_1510)">
<mask id="mask0_59_1510" style="mask-type:luminance" maskUnits="userSpaceOnUse" x="-44" y="0" width="289" height="258">
<path d="M244.343 0.00292969H-43.2593V257.714H244.343V0.00292969Z" fill="white"/>
</mask>
<g mask="url(#mask0_59_1510)">
<path d="M122.631 16.1807C186.37 16.1807 238.121 67.9318 238.121 131.671C238.121 195.41 186.37 247.161 122.631 247.161C58.8917 247.161 7.14062 195.41 7.14062 131.671C7.14062 67.9318 58.8917 16.1807 122.631 16.1807Z" fill="white"/>
</g>
<path d="M101.515 124.768V123.016L106.163 118.459C106.607 118.01 106.978 117.612 107.274 117.263C107.57 116.914 107.793 116.577 107.941 116.25C108.089 115.923 108.163 115.574 108.163 115.204C108.163 114.781 108.067 114.419 107.875 114.119C107.684 113.814 107.42 113.578 107.084 113.413C106.749 113.247 106.368 113.164 105.941 113.164C105.5 113.164 105.115 113.256 104.783 113.439C104.452 113.618 104.195 113.873 104.012 114.204C103.833 114.535 103.744 114.929 103.744 115.387H101.436C101.436 114.537 101.63 113.798 102.018 113.171C102.406 112.543 102.94 112.057 103.62 111.713C104.304 111.369 105.089 111.197 105.973 111.197C106.871 111.197 107.66 111.364 108.34 111.7C109.019 112.036 109.547 112.495 109.922 113.079C110.301 113.663 110.49 114.33 110.49 115.08C110.49 115.581 110.394 116.073 110.203 116.557C110.011 117.041 109.673 117.577 109.189 118.165C108.71 118.754 108.037 119.466 107.169 120.303L104.862 122.65V122.741H110.693V124.768H101.515ZM117.897 125.023C116.82 125.023 115.896 124.75 115.125 124.205C114.358 123.656 113.768 122.865 113.354 121.832C112.944 120.795 112.739 119.547 112.739 118.087C112.743 116.627 112.95 115.385 113.36 114.361C113.774 113.332 114.365 112.548 115.132 112.007C115.903 111.467 116.825 111.197 117.897 111.197C118.969 111.197 119.891 111.467 120.662 112.007C121.433 112.548 122.024 113.332 122.433 114.361C122.847 115.389 123.054 116.631 123.054 118.087C123.054 119.551 122.847 120.802 122.433 121.839C122.024 122.872 121.433 123.661 120.662 124.205C119.895 124.75 118.973 125.023 117.897 125.023ZM117.897 122.976C118.734 122.976 119.394 122.565 119.877 121.741C120.366 120.913 120.61 119.695 120.61 118.087C120.61 117.023 120.499 116.13 120.276 115.407C120.054 114.683 119.74 114.138 119.335 113.772C118.93 113.402 118.45 113.217 117.897 113.217C117.064 113.217 116.406 113.631 115.923 114.459C115.439 115.282 115.195 116.492 115.19 118.087C115.186 119.154 115.293 120.052 115.511 120.78C115.733 121.508 116.047 122.057 116.452 122.427C116.857 122.793 117.339 122.976 117.897 122.976ZM132.384 122.257V121.551C132.384 121.033 132.493 120.556 132.711 120.12C132.934 119.684 133.256 119.333 133.679 119.067C134.102 118.801 134.614 118.669 135.215 118.669C135.834 118.669 136.352 118.801 136.771 119.067C137.189 119.329 137.505 119.677 137.719 120.113C137.937 120.549 138.046 121.028 138.046 121.551V122.257C138.046 122.776 137.937 123.253 137.719 123.689C137.501 124.125 137.18 124.476 136.758 124.741C136.339 125.007 135.825 125.14 135.215 125.14C134.605 125.14 134.088 125.007 133.666 124.741C133.243 124.476 132.923 124.125 132.705 123.689C132.491 123.253 132.384 122.776 132.384 122.257ZM134.091 121.551V122.257C134.091 122.602 134.173 122.918 134.339 123.205C134.505 123.493 134.797 123.637 135.215 123.637C135.638 123.637 135.928 123.495 136.084 123.212C136.246 122.924 136.326 122.606 136.326 122.257V121.551C136.326 121.203 136.25 120.885 136.098 120.597C135.945 120.305 135.651 120.159 135.215 120.159C134.805 120.159 134.516 120.305 134.346 120.597C134.176 120.885 134.091 121.203 134.091 121.551ZM125.579 114.596V113.89C125.579 113.367 125.691 112.888 125.913 112.452C126.135 112.016 126.458 111.667 126.88 111.406C127.303 111.14 127.815 111.007 128.416 111.007C129.031 111.007 129.547 111.14 129.966 111.406C130.388 111.667 130.707 112.016 130.92 112.452C131.134 112.888 131.24 113.367 131.24 113.89V114.596C131.24 115.119 131.132 115.598 130.914 116.034C130.7 116.466 130.382 116.812 129.959 117.073C129.537 117.335 129.022 117.466 128.416 117.466C127.802 117.466 127.283 117.335 126.861 117.073C126.442 116.812 126.124 116.463 125.906 116.028C125.688 115.592 125.579 115.115 125.579 114.596ZM127.299 113.89V114.596C127.299 114.945 127.379 115.263 127.541 115.55C127.706 115.834 127.998 115.975 128.416 115.975C128.835 115.975 129.122 115.834 129.279 115.55C129.441 115.263 129.521 114.945 129.521 114.596V113.89C129.521 113.541 129.445 113.223 129.292 112.936C129.14 112.644 128.848 112.498 128.416 112.498C128.002 112.498 127.713 112.644 127.547 112.936C127.381 113.228 127.299 113.546 127.299 113.89ZM126.325 124.768L135.529 111.38H137.163L127.959 124.768H126.325Z" fill="#0C0A09"/>
<path d="M82.2298 141.778V132.904H83.3044V136.856H88.0361V132.904H89.1108V141.778H88.0361V137.809H83.3044V141.778H82.2298ZM91.1235 141.778V135.123H92.1461V141.778H91.1235ZM91.6435 134.013C91.4441 134.013 91.2723 133.945 91.1278 133.81C90.9863 133.674 90.9155 133.511 90.9155 133.32C90.9155 133.129 90.9863 132.966 91.1278 132.83C91.2723 132.695 91.4441 132.627 91.6435 132.627C91.8428 132.627 92.0132 132.695 92.1548 132.83C92.2992 132.966 92.3714 133.129 92.3714 133.32C92.3714 133.511 92.2992 133.674 92.1548 133.81C92.0132 133.945 91.8428 134.013 91.6435 134.013ZM96.7056 144.413C96.2117 144.413 95.787 144.349 95.4317 144.222C95.0764 144.098 94.7803 143.933 94.5434 143.728C94.3094 143.526 94.1231 143.309 93.9844 143.078L94.7991 142.506C94.8915 142.628 95.0085 142.766 95.15 142.922C95.2916 143.081 95.4851 143.218 95.7307 143.334C95.9791 143.452 96.3041 143.512 96.7056 143.512C97.2429 143.512 97.6864 143.382 98.0359 143.122C98.3854 142.862 98.5602 142.454 98.5602 141.9V140.548H98.4735C98.3984 140.669 98.2916 140.819 98.1529 140.998C98.0171 141.175 97.8207 141.332 97.5636 141.471C97.3094 141.606 96.9656 141.674 96.5323 141.674C95.995 141.674 95.5126 141.547 95.085 141.293C94.6604 141.039 94.3239 140.669 94.0754 140.184C93.8299 139.698 93.7071 139.109 93.7071 138.416C93.7071 137.734 93.827 137.14 94.0668 136.635C94.3065 136.126 94.6402 135.734 95.0677 135.456C95.4952 135.176 95.9892 135.036 96.5496 135.036C96.983 135.036 97.3267 135.108 97.5809 135.253C97.838 135.394 98.0345 135.556 98.1702 135.738C98.3089 135.917 98.4158 136.064 98.4909 136.18H98.5949V135.123H99.5828V141.969C99.5828 142.541 99.4528 143.006 99.1928 143.364C98.9357 143.725 98.5891 143.99 98.1529 144.157C97.7196 144.328 97.2372 144.413 96.7056 144.413ZM96.671 140.756C97.0812 140.756 97.4278 140.662 97.7109 140.474C97.994 140.286 98.2092 140.016 98.3566 139.664C98.5039 139.311 98.5775 138.89 98.5775 138.398C98.5775 137.919 98.5053 137.496 98.3609 137.129C98.2164 136.762 98.0027 136.475 97.7196 136.267C97.4365 136.059 97.0869 135.955 96.671 135.955C96.2377 135.955 95.8766 136.064 95.5877 136.284C95.3017 136.503 95.0865 136.798 94.9421 137.168C94.8005 137.538 94.7297 137.948 94.7297 138.398C94.7297 138.861 94.8019 139.269 94.9464 139.625C95.0937 139.977 95.3104 140.255 95.5964 140.457C95.8852 140.656 96.2434 140.756 96.671 140.756ZM102.477 137.775V141.778H101.455V132.904H102.477V136.163H102.564C102.72 135.819 102.954 135.546 103.266 135.344C103.581 135.139 104 135.036 104.523 135.036C104.976 135.036 105.373 135.127 105.714 135.309C106.055 135.488 106.319 135.764 106.507 136.137C106.698 136.506 106.793 136.977 106.793 137.549V141.778H105.771V137.619C105.771 137.09 105.633 136.681 105.359 136.392C105.087 136.1 104.71 135.955 104.228 135.955C103.893 135.955 103.592 136.025 103.327 136.167C103.064 136.308 102.856 136.515 102.703 136.787C102.552 137.058 102.477 137.387 102.477 137.775ZM111.455 141.917C110.813 141.917 110.26 141.775 109.795 141.492C109.333 141.206 108.976 140.808 108.725 140.296C108.476 139.782 108.352 139.184 108.352 138.502C108.352 137.821 108.476 137.22 108.725 136.7C108.976 136.177 109.325 135.77 109.773 135.478C110.224 135.183 110.75 135.036 111.351 135.036C111.697 135.036 112.039 135.094 112.377 135.209C112.715 135.325 113.023 135.513 113.3 135.773C113.578 136.03 113.799 136.371 113.963 136.795C114.128 137.22 114.21 137.743 114.21 138.364V138.797H109.08V137.913H113.17C113.17 137.538 113.095 137.203 112.945 136.908C112.798 136.613 112.587 136.381 112.312 136.21C112.041 136.04 111.72 135.955 111.351 135.955C110.943 135.955 110.591 136.056 110.293 136.258C109.999 136.457 109.772 136.717 109.613 137.038C109.454 137.359 109.375 137.702 109.375 138.069V138.658C109.375 139.161 109.461 139.587 109.635 139.937C109.811 140.283 110.055 140.548 110.367 140.73C110.679 140.909 111.041 140.998 111.455 140.998C111.723 140.998 111.966 140.961 112.182 140.886C112.402 140.808 112.591 140.692 112.75 140.539C112.909 140.383 113.032 140.19 113.118 139.958L114.106 140.236C114.002 140.571 113.828 140.865 113.582 141.12C113.337 141.371 113.033 141.567 112.672 141.709C112.311 141.848 111.905 141.917 111.455 141.917ZM115.766 141.778V135.123H116.754V136.128H116.823C116.945 135.799 117.164 135.531 117.482 135.326C117.8 135.121 118.158 135.019 118.556 135.019C118.632 135.019 118.725 135.02 118.838 135.023C118.951 135.026 119.036 135.03 119.094 135.036V136.076C119.059 136.067 118.98 136.054 118.855 136.037C118.734 136.017 118.606 136.007 118.47 136.007C118.146 136.007 117.857 136.074 117.603 136.21C117.352 136.343 117.153 136.528 117.005 136.765C116.861 136.999 116.789 137.266 116.789 137.567V141.778H115.766ZM128.452 136.613L127.534 136.873C127.476 136.72 127.391 136.571 127.278 136.427C127.168 136.28 127.018 136.158 126.827 136.063C126.637 135.968 126.393 135.92 126.095 135.92C125.688 135.92 125.348 136.014 125.077 136.202C124.808 136.386 124.674 136.622 124.674 136.908C124.674 137.162 124.766 137.363 124.951 137.51C125.136 137.658 125.425 137.78 125.818 137.879L126.806 138.121C127.401 138.266 127.844 138.487 128.136 138.784C128.428 139.079 128.574 139.459 128.574 139.924C128.574 140.305 128.464 140.646 128.244 140.946C128.028 141.247 127.724 141.484 127.334 141.657C126.944 141.83 126.491 141.917 125.974 141.917C125.295 141.917 124.733 141.77 124.288 141.475C123.843 141.18 123.562 140.75 123.443 140.184L124.414 139.941C124.506 140.299 124.681 140.568 124.938 140.747C125.198 140.926 125.538 141.016 125.956 141.016C126.433 141.016 126.811 140.915 127.092 140.712C127.375 140.507 127.516 140.262 127.516 139.976C127.516 139.745 127.435 139.551 127.274 139.395C127.112 139.236 126.863 139.118 126.528 139.04L125.419 138.78C124.81 138.635 124.362 138.411 124.076 138.108C123.793 137.802 123.651 137.419 123.651 136.96C123.651 136.584 123.757 136.252 123.967 135.963C124.181 135.674 124.472 135.448 124.838 135.283C125.208 135.118 125.627 135.036 126.095 135.036C126.754 135.036 127.271 135.18 127.646 135.469C128.025 135.758 128.293 136.139 128.452 136.613ZM130.113 144.274V135.123H131.101V136.18H131.222C131.297 136.064 131.401 135.917 131.534 135.738C131.67 135.556 131.864 135.394 132.115 135.253C132.369 135.108 132.713 135.036 133.146 135.036C133.707 135.036 134.201 135.176 134.628 135.456C135.056 135.737 135.389 136.134 135.629 136.648C135.869 137.162 135.989 137.769 135.989 138.468C135.989 139.173 135.869 139.784 135.629 140.301C135.389 140.815 135.057 141.214 134.632 141.497C134.208 141.777 133.718 141.917 133.163 141.917C132.736 141.917 132.394 141.846 132.137 141.705C131.879 141.56 131.682 141.397 131.543 141.215C131.404 141.03 131.297 140.877 131.222 140.756H131.136V144.274H130.113ZM131.118 138.45C131.118 138.953 131.192 139.397 131.339 139.781C131.487 140.162 131.702 140.461 131.985 140.678C132.268 140.891 132.615 140.998 133.025 140.998C133.452 140.998 133.809 140.886 134.095 140.66C134.384 140.432 134.601 140.126 134.745 139.742C134.892 139.355 134.966 138.924 134.966 138.45C134.966 137.983 134.894 137.561 134.749 137.185C134.608 136.807 134.393 136.508 134.104 136.288C133.818 136.066 133.458 135.955 133.025 135.955C132.609 135.955 132.259 136.06 131.976 136.271C131.693 136.479 131.479 136.771 131.335 137.146C131.19 137.519 131.118 137.954 131.118 138.45ZM139.507 141.934C139.085 141.934 138.703 141.855 138.359 141.696C138.015 141.534 137.742 141.302 137.54 140.998C137.338 140.692 137.237 140.322 137.237 139.889C137.237 139.508 137.312 139.199 137.462 138.962C137.612 138.722 137.813 138.534 138.064 138.398C138.316 138.263 138.593 138.162 138.896 138.095C139.202 138.026 139.51 137.971 139.819 137.931C140.224 137.879 140.551 137.84 140.803 137.814C141.057 137.785 141.242 137.737 141.357 137.671C141.476 137.604 141.535 137.489 141.535 137.324V137.289C141.535 136.862 141.418 136.529 141.184 136.293C140.953 136.056 140.602 135.937 140.131 135.937C139.643 135.937 139.26 136.044 138.983 136.258C138.706 136.472 138.511 136.7 138.398 136.943L137.427 136.596C137.601 136.191 137.832 135.877 138.121 135.651C138.412 135.423 138.73 135.264 139.074 135.175C139.42 135.082 139.761 135.036 140.096 135.036C140.31 135.036 140.556 135.062 140.833 135.114C141.113 135.163 141.383 135.266 141.643 135.422C141.906 135.578 142.124 135.813 142.298 136.128C142.471 136.443 142.558 136.865 142.558 137.393V141.778H141.535V140.877H141.483C141.414 141.021 141.298 141.176 141.136 141.341C140.975 141.505 140.759 141.645 140.491 141.761C140.222 141.877 139.894 141.934 139.507 141.934ZM139.663 141.016C140.068 141.016 140.408 140.936 140.686 140.777C140.966 140.618 141.177 140.413 141.318 140.162C141.463 139.911 141.535 139.646 141.535 139.369V138.433C141.492 138.485 141.396 138.533 141.249 138.576C141.105 138.617 140.937 138.653 140.746 138.684C140.559 138.713 140.375 138.739 140.196 138.762C140.02 138.783 139.877 138.8 139.767 138.814C139.501 138.849 139.253 138.905 139.022 138.983C138.794 139.059 138.609 139.173 138.467 139.326C138.329 139.476 138.259 139.681 138.259 139.941C138.259 140.296 138.391 140.565 138.654 140.747C138.919 140.926 139.256 141.016 139.663 141.016ZM147.128 141.917C146.504 141.917 145.967 141.77 145.516 141.475C145.065 141.18 144.719 140.774 144.476 140.257C144.233 139.74 144.112 139.15 144.112 138.485C144.112 137.809 144.236 137.213 144.485 136.696C144.736 136.176 145.086 135.77 145.533 135.478C145.984 135.183 146.51 135.036 147.111 135.036C147.579 135.036 148 135.123 148.376 135.296C148.752 135.469 149.059 135.712 149.299 136.024C149.539 136.336 149.687 136.7 149.745 137.116H148.723C148.645 136.813 148.471 136.544 148.203 136.31C147.937 136.073 147.579 135.955 147.128 135.955C146.729 135.955 146.38 136.059 146.079 136.267C145.782 136.472 145.549 136.762 145.382 137.138C145.217 137.51 145.135 137.948 145.135 138.45C145.135 138.965 145.216 139.412 145.377 139.794C145.542 140.175 145.773 140.471 146.071 140.682C146.371 140.893 146.724 140.998 147.128 140.998C147.394 140.998 147.635 140.952 147.852 140.86C148.068 140.767 148.252 140.634 148.402 140.461C148.552 140.288 148.659 140.08 148.723 139.837H149.745C149.687 140.23 149.544 140.584 149.316 140.899C149.091 141.211 148.792 141.459 148.419 141.644C148.05 141.826 147.619 141.917 147.128 141.917ZM154.031 141.917C153.389 141.917 152.836 141.775 152.371 141.492C151.909 141.206 151.552 140.808 151.301 140.296C151.052 139.782 150.928 139.184 150.928 138.502C150.928 137.821 151.052 137.22 151.301 136.7C151.552 136.177 151.902 135.77 152.349 135.478C152.8 135.183 153.326 135.036 153.927 135.036C154.273 135.036 154.616 135.094 154.954 135.209C155.292 135.325 155.599 135.513 155.877 135.773C156.154 136.03 156.375 136.371 156.54 136.795C156.704 137.22 156.787 137.743 156.787 138.364V138.797H151.656V137.913H155.747C155.747 137.538 155.672 137.203 155.521 136.908C155.374 136.613 155.163 136.381 154.889 136.21C154.617 136.04 154.296 135.955 153.927 135.955C153.519 135.955 153.167 136.056 152.869 136.258C152.575 136.457 152.348 136.717 152.189 137.038C152.03 137.359 151.951 137.702 151.951 138.069V138.658C151.951 139.161 152.037 139.587 152.211 139.937C152.387 140.283 152.631 140.548 152.943 140.73C153.255 140.909 153.618 140.998 154.031 140.998C154.299 140.998 154.542 140.961 154.759 140.886C154.978 140.808 155.167 140.692 155.326 140.539C155.485 140.383 155.608 140.19 155.695 139.958L156.683 140.236C156.579 140.571 156.404 140.865 156.158 141.12C155.913 141.371 155.609 141.567 155.248 141.709C154.887 141.848 154.481 141.917 154.031 141.917ZM98.4102 155.057V151.123H99.4328V157.778H98.4102V156.652H98.3408C98.1849 156.99 97.9422 157.277 97.6129 157.514C97.2836 157.748 96.8676 157.865 96.3649 157.865C95.949 157.865 95.5792 157.774 95.2557 157.592C94.9321 157.407 94.6779 157.13 94.493 156.76C94.3082 156.387 94.2157 155.918 94.2157 155.352V151.123H95.2383V155.282C95.2383 155.768 95.3741 156.155 95.6456 156.444C95.9201 156.733 96.2696 156.877 96.6943 156.877C96.9485 156.877 97.207 156.812 97.4699 156.682C97.7357 156.552 97.9581 156.353 98.1372 156.084C98.3192 155.815 98.4102 155.473 98.4102 155.057ZM104.2 151.123V151.989H100.751V151.123H104.2ZM101.756 149.528H102.779V155.872C102.779 156.161 102.821 156.377 102.905 156.522C102.991 156.663 103.101 156.759 103.234 156.808C103.37 156.854 103.513 156.877 103.663 156.877C103.776 156.877 103.868 156.871 103.94 156.86C104.013 156.845 104.07 156.834 104.114 156.825L104.322 157.744C104.252 157.77 104.156 157.796 104.031 157.822C103.907 157.851 103.75 157.865 103.559 157.865C103.27 157.865 102.987 157.803 102.71 157.679C102.435 157.554 102.207 157.365 102.025 157.111C101.846 156.857 101.756 156.536 101.756 156.149V149.528ZM105.739 157.778V151.123H106.761V157.778H105.739ZM106.259 150.013C106.059 150.013 105.887 149.945 105.743 149.81C105.601 149.674 105.531 149.511 105.531 149.32C105.531 149.129 105.601 148.966 105.743 148.83C105.887 148.695 106.059 148.627 106.259 148.627C106.458 148.627 106.628 148.695 106.77 148.83C106.914 148.966 106.987 149.129 106.987 149.32C106.987 149.511 106.914 149.674 106.77 149.81C106.628 149.945 106.458 150.013 106.259 150.013ZM109.657 148.904V157.778H108.634V148.904H109.657ZM111.53 157.778V151.123H112.552V157.778H111.53ZM112.05 150.013C111.85 150.013 111.679 149.945 111.534 149.81C111.393 149.674 111.322 149.511 111.322 149.32C111.322 149.129 111.393 148.966 111.534 148.83C111.679 148.695 111.85 148.627 112.05 148.627C112.249 148.627 112.42 148.695 112.561 148.83C112.706 148.966 112.778 149.129 112.778 149.32C112.778 149.511 112.706 149.674 112.561 149.81C112.42 149.945 112.249 150.013 112.05 150.013ZM114.235 157.778V156.998L118.013 152.145V152.076H114.356V151.123H119.33V151.937L115.656 156.756V156.825H119.452V157.778H114.235ZM122.985 157.934C122.564 157.934 122.181 157.855 121.837 157.696C121.493 157.534 121.22 157.302 121.018 156.998C120.816 156.692 120.715 156.322 120.715 155.889C120.715 155.508 120.79 155.199 120.94 154.962C121.09 154.722 121.291 154.534 121.543 154.398C121.794 154.263 122.071 154.162 122.375 154.095C122.681 154.026 122.988 153.971 123.297 153.931C123.702 153.879 124.03 153.84 124.281 153.814C124.535 153.785 124.72 153.737 124.836 153.671C124.954 153.604 125.013 153.489 125.013 153.324V153.289C125.013 152.862 124.896 152.529 124.662 152.293C124.431 152.056 124.08 151.937 123.609 151.937C123.121 151.937 122.738 152.044 122.461 152.258C122.184 152.472 121.989 152.7 121.876 152.943L120.906 152.596C121.079 152.191 121.31 151.877 121.599 151.651C121.891 151.423 122.208 151.264 122.552 151.175C122.899 151.082 123.24 151.036 123.575 151.036C123.789 151.036 124.034 151.062 124.311 151.114C124.592 151.163 124.862 151.266 125.122 151.422C125.385 151.578 125.603 151.813 125.776 152.128C125.949 152.443 126.036 152.865 126.036 153.393V157.778H125.013V156.877H124.961C124.892 157.021 124.777 157.176 124.615 157.341C124.453 157.505 124.238 157.645 123.969 157.761C123.7 157.877 123.373 157.934 122.985 157.934ZM123.141 157.016C123.546 157.016 123.887 156.936 124.164 156.777C124.444 156.618 124.655 156.413 124.797 156.162C124.941 155.911 125.013 155.646 125.013 155.369V154.433C124.97 154.485 124.875 154.533 124.727 154.576C124.583 154.617 124.415 154.653 124.225 154.684C124.037 154.713 123.854 154.739 123.674 154.762C123.498 154.783 123.355 154.8 123.245 154.814C122.98 154.849 122.731 154.905 122.5 154.983C122.272 155.059 122.087 155.173 121.946 155.326C121.807 155.476 121.738 155.681 121.738 155.941C121.738 156.296 121.869 156.565 122.132 156.747C122.398 156.926 122.734 157.016 123.141 157.016ZM130.797 151.123V151.989H127.348V151.123H130.797ZM128.353 149.528H129.376V155.872C129.376 156.161 129.418 156.377 129.501 156.522C129.588 156.663 129.698 156.759 129.831 156.808C129.967 156.854 130.11 156.877 130.26 156.877C130.372 156.877 130.465 156.871 130.537 156.86C130.609 156.845 130.667 156.834 130.71 156.825L130.918 157.744C130.849 157.77 130.752 157.796 130.628 157.822C130.504 157.851 130.346 157.865 130.156 157.865C129.867 157.865 129.584 157.803 129.306 157.679C129.032 157.554 128.804 157.365 128.622 157.111C128.443 156.857 128.353 156.536 128.353 156.149V149.528ZM132.335 157.778V151.123H133.358V157.778H132.335ZM132.855 150.013C132.656 150.013 132.484 149.945 132.34 149.81C132.198 149.674 132.127 149.511 132.127 149.32C132.127 149.129 132.198 148.966 132.34 148.83C132.484 148.695 132.656 148.627 132.855 148.627C133.055 148.627 133.225 148.695 133.367 148.83C133.511 148.966 133.583 149.129 133.583 149.32C133.583 149.511 133.511 149.674 133.367 149.81C133.225 149.945 133.055 150.013 132.855 150.013ZM137.935 157.917C137.334 157.917 136.807 157.774 136.353 157.488C135.903 157.202 135.55 156.802 135.296 156.288C135.045 155.774 134.919 155.173 134.919 154.485C134.919 153.792 135.045 153.187 135.296 152.67C135.55 152.152 135.903 151.751 136.353 151.465C136.807 151.179 137.334 151.036 137.935 151.036C138.536 151.036 139.061 151.179 139.512 151.465C139.966 151.751 140.318 152.152 140.569 152.67C140.824 153.187 140.951 153.792 140.951 154.485C140.951 155.173 140.824 155.774 140.569 156.288C140.318 156.802 139.966 157.202 139.512 157.488C139.061 157.774 138.536 157.917 137.935 157.917ZM137.935 156.998C138.391 156.998 138.767 156.881 139.061 156.647C139.356 156.413 139.574 156.106 139.716 155.724C139.857 155.343 139.928 154.93 139.928 154.485C139.928 154.04 139.857 153.626 139.716 153.242C139.574 152.857 139.356 152.547 139.061 152.31C138.767 152.073 138.391 151.955 137.935 151.955C137.478 151.955 137.103 152.073 136.808 152.31C136.513 152.547 136.295 152.857 136.154 153.242C136.012 153.626 135.942 154.04 135.942 154.485C135.942 154.93 136.012 155.343 136.154 155.724C136.295 156.106 136.513 156.413 136.808 156.647C137.103 156.881 137.478 156.998 137.935 156.998ZM143.534 153.775V157.778H142.512V151.123H143.5V152.163H143.586C143.742 151.825 143.979 151.553 144.297 151.348C144.615 151.14 145.025 151.036 145.527 151.036C145.978 151.036 146.372 151.128 146.71 151.313C147.048 151.495 147.311 151.773 147.499 152.145C147.687 152.515 147.781 152.983 147.781 153.549V157.778H146.758V153.619C146.758 153.096 146.622 152.688 146.351 152.397C146.079 152.102 145.707 151.955 145.233 151.955C144.906 151.955 144.615 152.025 144.358 152.167C144.103 152.308 143.903 152.515 143.755 152.787C143.608 153.058 143.534 153.387 143.534 153.775Z" fill="#4C4B56"/>
<path d="M205.567 20.0611H206.54V24.2877C206.54 24.7375 206.434 25.136 206.223 25.4832C206.012 25.8284 205.715 26.1003 205.332 26.299C204.949 26.4957 204.5 26.594 203.986 26.594C203.473 26.594 203.026 26.4957 202.643 26.299C202.26 26.1003 201.963 25.8284 201.752 25.4832C201.54 25.136 201.435 24.7375 201.435 24.2877V20.0611H202.404V24.2093C202.404 24.5 202.468 24.7584 202.596 24.9843C202.725 25.2102 202.908 25.388 203.145 25.5177C203.381 25.6453 203.661 25.7091 203.986 25.7091C204.312 25.7091 204.593 25.6453 204.83 25.5177C205.068 25.388 205.25 25.2102 205.376 24.9843C205.503 24.7584 205.567 24.5 205.567 24.2093V20.0611ZM208.812 23.6256V26.4873H207.874V21.6677H208.775V22.4521H208.834C208.945 22.1969 209.119 21.9919 209.355 21.8371C209.594 21.6823 209.894 21.6049 210.256 21.6049C210.584 21.6049 210.872 21.674 211.119 21.812C211.365 21.948 211.557 22.1509 211.693 22.4207C211.829 22.6906 211.897 23.0242 211.897 23.4217V26.4873H210.959V23.5347C210.959 23.1853 210.868 22.9123 210.686 22.7157C210.504 22.517 210.254 22.4176 209.936 22.4176C209.718 22.4176 209.525 22.4647 209.355 22.5588C209.188 22.6529 209.055 22.791 208.957 22.973C208.86 23.1529 208.812 23.3704 208.812 23.6256ZM216.208 24.4885V21.6677H217.149V26.4873H216.227V25.6527H216.177C216.066 25.91 215.888 26.1244 215.643 26.2959C215.401 26.4653 215.098 26.5501 214.736 26.5501C214.427 26.5501 214.153 26.4821 213.914 26.3461C213.678 26.208 213.492 26.0041 213.356 25.7342C213.222 25.4644 213.155 25.1307 213.155 24.7333V21.6677H214.093V24.6203C214.093 24.9487 214.184 25.2102 214.366 25.4048C214.548 25.5993 214.785 25.6966 215.075 25.6966C215.251 25.6966 215.426 25.6527 215.599 25.5648C215.775 25.4769 215.92 25.3441 216.036 25.1663C216.153 24.9885 216.21 24.7626 216.208 24.4885ZM222.022 22.8443L221.171 22.995C221.136 22.8862 221.079 22.7826 221.002 22.6843C220.927 22.586 220.824 22.5055 220.694 22.4427C220.565 22.38 220.403 22.3486 220.208 22.3486C219.942 22.3486 219.721 22.4082 219.543 22.5274C219.365 22.6446 219.276 22.7962 219.276 22.9824C219.276 23.1435 219.336 23.2732 219.455 23.3715C219.574 23.4698 219.767 23.5503 220.032 23.6131L220.798 23.7888C221.241 23.8913 221.572 24.0493 221.789 24.2626C222.007 24.476 222.116 24.7532 222.116 25.0941C222.116 25.3828 222.032 25.6401 221.865 25.866C221.699 26.0899 221.468 26.2656 221.171 26.3932C220.876 26.5208 220.534 26.5846 220.145 26.5846C219.606 26.5846 219.165 26.4695 218.824 26.2394C218.483 26.0072 218.274 25.6778 218.197 25.251L219.103 25.113C219.16 25.3493 219.276 25.5282 219.452 25.6495C219.628 25.7688 219.857 25.8284 220.139 25.8284C220.446 25.8284 220.692 25.7646 220.876 25.637C221.06 25.5073 221.152 25.3493 221.152 25.1632C221.152 25.0125 221.096 24.886 220.983 24.7835C220.872 24.681 220.702 24.6036 220.472 24.5513L219.656 24.3724C219.206 24.2699 218.873 24.1068 218.658 23.8829C218.445 23.6591 218.338 23.3757 218.338 23.0326C218.338 22.7481 218.417 22.4992 218.576 22.2858C218.735 22.0724 218.955 21.9061 219.235 21.7869C219.516 21.6656 219.837 21.6049 220.199 21.6049C220.719 21.6049 221.129 21.7179 221.429 21.9438C221.728 22.1676 221.925 22.4678 222.022 22.8443ZM225.225 26.5846C224.75 26.5846 224.341 26.4831 223.998 26.2802C223.657 26.0752 223.393 25.7876 223.207 25.4173C223.023 25.045 222.931 24.6088 222.931 24.1089C222.931 23.6152 223.023 23.1801 223.207 22.8036C223.393 22.427 223.652 22.1331 223.985 21.9218C224.32 21.7106 224.711 21.6049 225.159 21.6049C225.431 21.6049 225.694 21.6499 225.949 21.7398C226.205 21.8298 226.434 21.971 226.637 22.1634C226.839 22.3559 226.999 22.6059 227.117 22.9134C227.234 23.2188 227.292 23.5901 227.292 24.0273V24.3599H223.461V23.657H226.373C226.373 23.4102 226.323 23.1916 226.222 23.0012C226.122 22.8088 225.981 22.6571 225.799 22.5463C225.619 22.4354 225.408 22.38 225.165 22.38C224.901 22.38 224.671 22.4448 224.475 22.5745C224.28 22.7021 224.129 22.8694 224.023 23.0765C223.918 23.2815 223.866 23.5043 223.866 23.7449V24.294C223.866 24.6161 223.922 24.8902 224.035 25.1161C224.15 25.342 224.31 25.5146 224.515 25.6338C224.72 25.751 224.96 25.8095 225.234 25.8095C225.412 25.8095 225.574 25.7844 225.72 25.7342C225.867 25.6819 225.993 25.6045 226.1 25.502C226.207 25.3995 226.288 25.273 226.345 25.1224L227.233 25.2824C227.162 25.5439 227.034 25.7729 226.85 25.9696C226.668 26.1641 226.439 26.3158 226.163 26.4245C225.889 26.5312 225.576 26.5846 225.225 26.5846ZM230.137 26.5814C229.748 26.5814 229.401 26.4821 229.096 26.2833C228.792 26.0825 228.554 25.797 228.38 25.4267C228.209 25.0544 228.123 24.6078 228.123 24.0869C228.123 23.566 228.21 23.1205 228.383 22.7502C228.559 22.38 228.8 22.0965 229.105 21.8999C229.411 21.7032 229.757 21.6049 230.144 21.6049C230.443 21.6049 230.683 21.6551 230.865 21.7555C231.05 21.8539 231.192 21.9689 231.292 22.1007C231.395 22.2325 231.474 22.3486 231.531 22.449H231.587V20.0611H232.525V26.4873H231.609V25.7374H231.531C231.474 25.8399 231.393 25.957 231.286 26.0888C231.181 26.2206 231.037 26.3356 230.853 26.434C230.669 26.5323 230.43 26.5814 230.137 26.5814ZM230.345 25.7813C230.614 25.7813 230.842 25.7102 231.029 25.5679C231.217 25.4236 231.359 25.2238 231.455 24.9686C231.554 24.7134 231.603 24.4164 231.603 24.0775C231.603 23.7428 231.555 23.4499 231.458 23.1989C231.362 22.9479 231.221 22.7523 231.035 22.6121C230.849 22.472 230.619 22.4019 230.345 22.4019C230.062 22.4019 229.827 22.4751 229.639 22.6216C229.45 22.768 229.308 22.9678 229.212 23.2209C229.118 23.474 229.071 23.7595 229.071 24.0775C229.071 24.3996 229.119 24.6894 229.215 24.9467C229.311 25.204 229.453 25.4079 229.642 25.5585C229.832 25.707 230.066 25.7813 230.345 25.7813ZM209.682 34.8443L208.832 34.995C208.796 34.8862 208.74 34.7826 208.663 34.6843C208.587 34.586 208.485 34.5055 208.355 34.4427C208.225 34.38 208.063 34.3486 207.869 34.3486C207.603 34.3486 207.381 34.4082 207.203 34.5274C207.026 34.6446 206.937 34.7962 206.937 34.9824C206.937 35.1435 206.996 35.2732 207.116 35.3715C207.235 35.4698 207.427 35.5503 207.693 35.6131L208.459 35.7888C208.902 35.8913 209.233 36.0493 209.45 36.2626C209.668 36.476 209.776 36.7532 209.776 37.0941C209.776 37.3828 209.693 37.6401 209.525 37.866C209.36 38.0899 209.129 38.2656 208.832 38.3932C208.537 38.5208 208.195 38.5846 207.806 38.5846C207.266 38.5846 206.826 38.4695 206.485 38.2394C206.144 38.0072 205.935 37.6778 205.857 37.251L206.764 37.113C206.821 37.3493 206.937 37.5282 207.112 37.6495C207.288 37.7688 207.517 37.8284 207.8 37.8284C208.107 37.8284 208.353 37.7646 208.537 37.637C208.721 37.5073 208.813 37.3493 208.813 37.1632C208.813 37.0125 208.757 36.886 208.644 36.7835C208.533 36.681 208.362 36.6036 208.132 36.5513L207.316 36.3724C206.867 36.2699 206.534 36.1068 206.319 35.8829C206.105 35.6591 205.999 35.3757 205.999 35.0326C205.999 34.7481 206.078 34.4992 206.237 34.2858C206.396 34.0724 206.616 33.9061 206.896 33.7869C207.176 33.6656 207.497 33.6049 207.859 33.6049C208.38 33.6049 208.79 33.7179 209.089 33.9438C209.388 34.1676 209.586 34.4678 209.682 34.8443ZM210.808 40.2947V33.6677H211.724V34.449H211.803C211.857 34.3486 211.935 34.2325 212.038 34.1007C212.14 33.9689 212.283 33.8539 212.465 33.7555C212.647 33.6551 212.887 33.6049 213.186 33.6049C213.576 33.6049 213.923 33.7032 214.228 33.8999C214.534 34.0965 214.773 34.38 214.947 34.7502C215.122 35.1205 215.21 35.566 215.21 36.0869C215.21 36.6078 215.123 37.0544 214.95 37.4267C214.776 37.797 214.538 38.0825 214.234 38.2833C213.931 38.4821 213.585 38.5814 213.196 38.5814C212.903 38.5814 212.663 38.5323 212.477 38.434C212.293 38.3356 212.149 38.2206 212.044 38.0888C211.94 37.957 211.859 37.8399 211.803 37.7374H211.746V40.2947H210.808ZM211.727 36.0775C211.727 36.4164 211.777 36.7134 211.875 36.9686C211.973 37.2238 212.115 37.4236 212.302 37.5679C212.488 37.7102 212.716 37.7813 212.986 37.7813C213.266 37.7813 213.5 37.707 213.688 37.5585C213.877 37.4079 214.019 37.204 214.115 36.9467C214.214 36.6894 214.263 36.3996 214.263 36.0775C214.263 35.7595 214.215 35.474 214.118 35.2209C214.024 34.9678 213.882 34.768 213.692 34.6216C213.503 34.4751 213.268 34.4019 212.986 34.4019C212.714 34.4019 212.484 34.472 212.295 34.6121C212.109 34.7523 211.968 34.9479 211.872 35.1989C211.775 35.4499 211.727 35.7428 211.727 36.0775ZM217.664 38.594C217.359 38.594 217.082 38.5375 216.836 38.4245C216.589 38.3095 216.393 38.1432 216.249 37.9256C216.107 37.7081 216.036 37.4414 216.036 37.1255C216.036 36.8536 216.088 36.6297 216.192 36.454C216.297 36.2783 216.438 36.1392 216.616 36.0367C216.794 35.9342 216.993 35.8568 217.212 35.8045C217.432 35.7522 217.656 35.7125 217.884 35.6853C218.172 35.6518 218.407 35.6246 218.587 35.6037C218.766 35.5807 218.897 35.5441 218.979 35.4939C219.06 35.4437 219.101 35.3621 219.101 35.2491V35.2272C219.101 34.9531 219.024 34.7408 218.869 34.5902C218.716 34.4396 218.488 34.3643 218.185 34.3643C217.869 34.3643 217.62 34.4343 217.438 34.5745C217.258 34.7126 217.134 34.8663 217.065 35.0357L216.183 34.8349C216.288 34.5421 216.44 34.3057 216.641 34.1258C216.844 33.9438 217.077 33.812 217.341 33.7304C217.604 33.6468 217.882 33.6049 218.172 33.6049C218.365 33.6049 218.569 33.6279 218.784 33.674C219.002 33.7179 219.205 33.7995 219.393 33.9187C219.583 34.0379 219.739 34.2084 219.86 34.4302C219.982 34.6498 220.042 34.9353 220.042 35.2868V38.4873H219.126V37.8284H219.089C219.028 37.9497 218.937 38.0689 218.816 38.1861C218.694 38.3032 218.538 38.4005 218.348 38.4779C218.158 38.5553 217.93 38.594 217.664 38.594ZM217.868 37.8409C218.127 37.8409 218.349 37.7897 218.533 37.6872C218.719 37.5847 218.861 37.4508 218.957 37.2855C219.055 37.1182 219.104 36.9393 219.104 36.749V36.1277C219.071 36.1612 219.006 36.1925 218.91 36.2218C218.816 36.249 218.708 36.2731 218.587 36.294C218.465 36.3128 218.347 36.3306 218.232 36.3473C218.117 36.362 218.021 36.3745 217.943 36.385C217.761 36.408 217.595 36.4467 217.444 36.5011C217.296 36.5555 217.177 36.6339 217.087 36.7364C216.999 36.8368 216.955 36.9707 216.955 37.1381C216.955 37.3703 217.041 37.546 217.212 37.6652C217.384 37.7824 217.602 37.8409 217.868 37.8409ZM223.322 38.5846C222.856 38.5846 222.454 38.4789 222.117 38.2677C221.783 38.0543 221.525 37.7604 221.345 37.3859C221.166 37.0115 221.076 36.5827 221.076 36.0995C221.076 35.61 221.168 35.178 221.352 34.8036C221.536 34.427 221.795 34.1331 222.13 33.9218C222.465 33.7106 222.859 33.6049 223.313 33.6049C223.679 33.6049 224.005 33.6729 224.292 33.8089C224.578 33.9428 224.81 34.131 224.985 34.3737C225.163 34.6163 225.269 34.8998 225.302 35.224H224.389C224.339 34.9981 224.224 34.8036 224.044 34.6404C223.866 34.4772 223.628 34.3956 223.329 34.3956C223.067 34.3956 222.838 34.4647 222.641 34.6027C222.447 34.7387 222.295 34.9332 222.186 35.1864C222.078 35.4374 222.023 35.7344 222.023 36.0775C222.023 36.4289 222.077 36.7322 222.183 36.9874C222.29 37.2427 222.441 37.4403 222.635 37.5805C222.832 37.7206 223.063 37.7907 223.329 37.7907C223.506 37.7907 223.667 37.7583 223.812 37.6934C223.958 37.6265 224.081 37.5313 224.179 37.4079C224.279 37.2845 224.349 37.136 224.389 36.9623H225.302C225.269 37.274 225.167 37.5522 224.998 37.797C224.828 38.0417 224.601 38.2342 224.317 38.3743C224.035 38.5145 223.703 38.5846 223.322 38.5846ZM228.383 38.5846C227.908 38.5846 227.499 38.4831 227.156 38.2802C226.815 38.0752 226.551 37.7876 226.365 37.4173C226.181 37.045 226.089 36.6088 226.089 36.1089C226.089 35.6152 226.181 35.1801 226.365 34.8036C226.551 34.427 226.811 34.1331 227.143 33.9218C227.478 33.7106 227.869 33.6049 228.317 33.6049C228.589 33.6049 228.852 33.6499 229.108 33.7398C229.363 33.8298 229.592 33.971 229.795 34.1634C229.998 34.3559 230.158 34.6059 230.275 34.9134C230.392 35.2188 230.45 35.5901 230.45 36.0273V36.3599H226.619V35.657H229.531C229.531 35.4102 229.481 35.1916 229.381 35.0012C229.28 34.8088 229.139 34.6571 228.957 34.5463C228.777 34.4354 228.566 34.38 228.323 34.38C228.059 34.38 227.829 34.4448 227.633 34.5745C227.438 34.7021 227.288 34.8694 227.181 35.0765C227.076 35.2815 227.024 35.5043 227.024 35.7449V36.294C227.024 36.6161 227.081 36.8902 227.193 37.1161C227.309 37.342 227.469 37.5146 227.674 37.6338C227.879 37.751 228.118 37.8095 228.392 37.8095C228.57 37.8095 228.732 37.7844 228.878 37.7342C229.025 37.6819 229.151 37.6045 229.258 37.502C229.365 37.3995 229.446 37.273 229.503 37.1224L230.391 37.2824C230.32 37.5439 230.192 37.7729 230.008 37.9696C229.826 38.1641 229.597 38.3158 229.321 38.4245C229.047 38.5312 228.734 38.5846 228.383 38.5846Z" fill="black"/>
<path d="M219.221 222.552H220.194V226.779C220.194 227.229 220.088 227.627 219.877 227.974C219.665 228.32 219.368 228.592 218.985 228.79C218.603 228.987 218.154 229.085 217.639 229.085C217.127 229.085 216.679 228.987 216.296 228.79C215.914 228.592 215.617 228.32 215.405 227.974C215.194 227.627 215.088 227.229 215.088 226.779V222.552H216.058V226.7C216.058 226.991 216.122 227.25 216.249 227.476C216.379 227.701 216.562 227.879 216.798 228.009C217.035 228.137 217.315 228.2 217.639 228.2C217.966 228.2 218.247 228.137 218.483 228.009C218.722 227.879 218.904 227.701 219.029 227.476C219.157 227.25 219.221 226.991 219.221 226.7V222.552ZM225.139 225.336L224.289 225.486C224.254 225.377 224.197 225.274 224.12 225.176C224.044 225.077 223.942 224.997 223.812 224.934C223.682 224.871 223.52 224.84 223.326 224.84C223.06 224.84 222.838 224.899 222.661 225.019C222.483 225.136 222.394 225.287 222.394 225.474C222.394 225.635 222.453 225.764 222.573 225.863C222.692 225.961 222.884 226.042 223.15 226.104L223.916 226.28C224.359 226.383 224.69 226.54 224.907 226.754C225.125 226.967 225.234 227.244 225.234 227.585C225.234 227.874 225.15 228.131 224.983 228.357C224.817 228.581 224.586 228.757 224.289 228.884C223.994 229.012 223.652 229.076 223.263 229.076C222.723 229.076 222.283 228.961 221.942 228.731C221.601 228.498 221.392 228.169 221.314 227.742L222.221 227.604C222.278 227.841 222.394 228.019 222.57 228.141C222.745 228.26 222.974 228.32 223.257 228.32C223.564 228.32 223.81 228.256 223.994 228.128C224.178 227.998 224.27 227.841 224.27 227.654C224.27 227.504 224.214 227.377 224.101 227.275C223.99 227.172 223.819 227.095 223.589 227.043L222.774 226.864C222.324 226.761 221.991 226.598 221.776 226.374C221.562 226.15 221.456 225.867 221.456 225.524C221.456 225.239 221.535 224.99 221.694 224.777C221.853 224.564 222.073 224.397 222.353 224.278C222.633 224.157 222.954 224.096 223.316 224.096C223.837 224.096 224.247 224.209 224.546 224.435C224.846 224.659 225.043 224.959 225.139 225.336ZM228.342 229.076C227.867 229.076 227.459 228.974 227.115 228.771C226.774 228.566 226.511 228.279 226.325 227.909C226.141 227.536 226.049 227.1 226.049 226.6C226.049 226.106 226.141 225.671 226.325 225.295C226.511 224.918 226.77 224.624 227.103 224.413C227.438 224.202 227.829 224.096 228.276 224.096C228.548 224.096 228.812 224.141 229.067 224.231C229.322 224.321 229.551 224.462 229.754 224.655C229.957 224.847 230.117 225.097 230.234 225.405C230.352 225.71 230.41 226.081 230.41 226.518V226.851H226.579V226.148H229.491C229.491 225.901 229.441 225.683 229.34 225.492C229.24 225.3 229.099 225.148 228.917 225.037C228.737 224.927 228.525 224.871 228.283 224.871C228.019 224.871 227.789 224.936 227.592 225.066C227.398 225.193 227.247 225.361 227.141 225.568C227.036 225.773 226.984 225.996 226.984 226.236V226.785C226.984 227.107 227.04 227.381 227.153 227.607C227.268 227.833 227.428 228.006 227.633 228.125C227.838 228.242 228.078 228.301 228.352 228.301C228.53 228.301 228.692 228.276 228.838 228.225C228.985 228.173 229.111 228.096 229.218 227.993C229.324 227.891 229.406 227.764 229.463 227.614L230.35 227.774C230.279 228.035 230.152 228.264 229.968 228.461C229.786 228.655 229.557 228.807 229.281 228.916C229.006 229.022 228.694 229.076 228.342 229.076ZM233.255 229.073C232.866 229.073 232.519 228.973 232.214 228.775C231.91 228.574 231.672 228.288 231.498 227.918C231.327 227.546 231.241 227.099 231.241 226.578C231.241 226.057 231.328 225.612 231.501 225.241C231.677 224.871 231.918 224.588 232.223 224.391C232.528 224.194 232.875 224.096 233.262 224.096C233.561 224.096 233.801 224.146 233.983 224.247C234.167 224.345 234.31 224.46 234.41 224.592C234.512 224.724 234.592 224.84 234.648 224.94H234.705V222.552H235.643V228.979H234.727V228.229H234.648C234.592 228.331 234.51 228.448 234.404 228.58C234.299 228.712 234.155 228.827 233.971 228.925C233.787 229.023 233.548 229.073 233.255 229.073ZM233.462 228.273C233.732 228.273 233.96 228.201 234.146 228.059C234.335 227.915 234.477 227.715 234.573 227.46C234.671 227.205 234.721 226.908 234.721 226.569C234.721 226.234 234.673 225.941 234.576 225.69C234.48 225.439 234.339 225.244 234.153 225.103C233.967 224.963 233.736 224.893 233.462 224.893C233.18 224.893 232.945 224.966 232.756 225.113C232.568 225.259 232.426 225.459 232.33 225.712C232.236 225.965 232.188 226.251 232.188 226.569C232.188 226.891 232.237 227.181 232.333 227.438C232.429 227.695 232.571 227.899 232.76 228.05C232.95 228.198 233.184 228.273 233.462 228.273ZM218.068 237.336L217.218 237.486C217.182 237.377 217.126 237.274 217.048 237.176C216.973 237.077 216.87 236.997 216.741 236.934C216.611 236.871 216.449 236.84 216.254 236.84C215.989 236.84 215.767 236.899 215.589 237.019C215.411 237.136 215.322 237.287 215.322 237.474C215.322 237.635 215.382 237.764 215.501 237.863C215.621 237.961 215.813 238.042 216.079 238.104L216.844 238.28C217.288 238.383 217.618 238.54 217.836 238.754C218.053 238.967 218.162 239.244 218.162 239.585C218.162 239.874 218.079 240.131 217.911 240.357C217.746 240.581 217.515 240.757 217.218 240.884C216.923 241.012 216.581 241.076 216.192 241.076C215.652 241.076 215.212 240.961 214.871 240.731C214.53 240.498 214.32 240.169 214.243 239.742L215.15 239.604C215.206 239.841 215.322 240.019 215.498 240.141C215.674 240.26 215.903 240.32 216.185 240.32C216.493 240.32 216.739 240.256 216.923 240.128C217.107 239.998 217.199 239.841 217.199 239.654C217.199 239.504 217.142 239.377 217.029 239.275C216.919 239.172 216.748 239.095 216.518 239.043L215.702 238.864C215.252 238.761 214.92 238.598 214.704 238.374C214.491 238.15 214.384 237.867 214.384 237.524C214.384 237.239 214.464 236.99 214.623 236.777C214.782 236.564 215.001 236.397 215.282 236.278C215.562 236.157 215.883 236.096 216.245 236.096C216.766 236.096 217.176 236.209 217.475 236.435C217.774 236.659 217.972 236.959 218.068 237.336ZM219.194 242.786V236.159H220.11V236.94H220.188C220.243 236.84 220.321 236.724 220.424 236.592C220.526 236.46 220.668 236.345 220.85 236.247C221.032 236.146 221.273 236.096 221.572 236.096C221.961 236.096 222.308 236.194 222.614 236.391C222.919 236.588 223.159 236.871 223.332 237.241C223.508 237.612 223.596 238.057 223.596 238.578C223.596 239.099 223.509 239.546 223.336 239.918C223.162 240.288 222.924 240.574 222.62 240.775C222.317 240.973 221.971 241.073 221.582 241.073C221.289 241.073 221.049 241.023 220.863 240.925C220.679 240.827 220.535 240.712 220.43 240.58C220.325 240.448 220.245 240.331 220.188 240.229H220.132V242.786H219.194ZM220.113 238.569C220.113 238.908 220.162 239.205 220.261 239.46C220.359 239.715 220.501 239.915 220.687 240.059C220.873 240.201 221.101 240.273 221.371 240.273C221.652 240.273 221.886 240.198 222.074 240.05C222.262 239.899 222.405 239.695 222.501 239.438C222.599 239.181 222.648 238.891 222.648 238.569C222.648 238.251 222.6 237.965 222.504 237.712C222.41 237.459 222.268 237.259 222.077 237.113C221.889 236.966 221.654 236.893 221.371 236.893C221.099 236.893 220.869 236.963 220.681 237.103C220.495 237.244 220.354 237.439 220.257 237.69C220.161 237.941 220.113 238.234 220.113 238.569ZM226.05 241.085C225.744 241.085 225.468 241.029 225.221 240.916C224.975 240.801 224.779 240.634 224.635 240.417C224.492 240.199 224.421 239.933 224.421 239.617C224.421 239.345 224.474 239.121 224.578 238.945C224.683 238.77 224.824 238.63 225.002 238.528C225.18 238.425 225.378 238.348 225.598 238.296C225.818 238.243 226.041 238.204 226.269 238.176C226.558 238.143 226.792 238.116 226.972 238.095C227.152 238.072 227.283 238.035 227.365 237.985C227.446 237.935 227.487 237.853 227.487 237.74V237.718C227.487 237.444 227.409 237.232 227.255 237.081C227.102 236.931 226.874 236.855 226.571 236.855C226.255 236.855 226.006 236.926 225.824 237.066C225.644 237.204 225.519 237.358 225.45 237.527L224.569 237.326C224.673 237.033 224.826 236.797 225.027 236.617C225.23 236.435 225.463 236.303 225.727 236.222C225.99 236.138 226.267 236.096 226.558 236.096C226.751 236.096 226.955 236.119 227.17 236.165C227.388 236.209 227.59 236.291 227.779 236.41C227.969 236.529 228.125 236.7 228.246 236.921C228.368 237.141 228.428 237.427 228.428 237.778V240.979H227.512V240.32H227.474C227.414 240.441 227.323 240.56 227.201 240.677C227.08 240.794 226.924 240.892 226.734 240.969C226.543 241.047 226.315 241.085 226.05 241.085ZM226.254 240.332C226.513 240.332 226.735 240.281 226.919 240.178C227.105 240.076 227.246 239.942 227.343 239.777C227.441 239.609 227.49 239.431 227.49 239.24V238.619C227.457 238.652 227.392 238.684 227.295 238.713C227.201 238.74 227.094 238.764 226.972 238.785C226.851 238.804 226.733 238.822 226.618 238.839C226.503 238.853 226.406 238.866 226.329 238.876C226.147 238.899 225.981 238.938 225.83 238.992C225.682 239.047 225.562 239.125 225.472 239.228C225.385 239.328 225.341 239.462 225.341 239.629C225.341 239.861 225.426 240.037 225.598 240.156C225.769 240.274 225.988 240.332 226.254 240.332ZM231.708 241.076C231.241 241.076 230.84 240.97 230.503 240.759C230.168 240.546 229.911 240.252 229.731 239.877C229.551 239.503 229.461 239.074 229.461 238.591C229.461 238.101 229.553 237.669 229.737 237.295C229.922 236.918 230.181 236.624 230.516 236.413C230.85 236.202 231.245 236.096 231.699 236.096C232.065 236.096 232.391 236.164 232.678 236.3C232.964 236.434 233.195 236.622 233.371 236.865C233.549 237.108 233.654 237.391 233.688 237.715H232.775C232.725 237.489 232.61 237.295 232.43 237.132C232.252 236.968 232.013 236.887 231.714 236.887C231.453 236.887 231.224 236.956 231.027 237.094C230.833 237.23 230.681 237.424 230.572 237.678C230.463 237.929 230.409 238.226 230.409 238.569C230.409 238.92 230.462 239.223 230.569 239.479C230.676 239.734 230.826 239.932 231.021 240.072C231.217 240.212 231.449 240.282 231.714 240.282C231.892 240.282 232.053 240.25 232.197 240.185C232.344 240.118 232.466 240.023 232.565 239.899C232.665 239.776 232.735 239.627 232.775 239.454H233.688C233.654 239.765 233.553 240.043 233.384 240.288C233.214 240.533 232.987 240.725 232.703 240.866C232.42 241.006 232.089 241.076 231.708 241.076ZM236.768 241.076C236.294 241.076 235.885 240.974 235.542 240.771C235.201 240.566 234.937 240.279 234.751 239.909C234.567 239.536 234.475 239.1 234.475 238.6C234.475 238.106 234.567 237.671 234.751 237.295C234.937 236.918 235.196 236.624 235.529 236.413C235.864 236.202 236.255 236.096 236.703 236.096C236.974 236.096 237.238 236.141 237.493 236.231C237.748 236.321 237.978 236.462 238.18 236.655C238.383 236.847 238.543 237.097 238.661 237.405C238.778 237.71 238.836 238.081 238.836 238.518V238.851H235.005V238.148H237.917C237.917 237.901 237.867 237.683 237.766 237.492C237.666 237.3 237.525 237.148 237.343 237.037C237.163 236.927 236.951 236.871 236.709 236.871C236.445 236.871 236.215 236.936 236.019 237.066C235.824 237.193 235.673 237.361 235.567 237.568C235.462 237.773 235.41 237.996 235.41 238.236V238.785C235.41 239.107 235.466 239.381 235.579 239.607C235.694 239.833 235.854 240.006 236.059 240.125C236.264 240.242 236.504 240.301 236.778 240.301C236.956 240.301 237.118 240.276 237.264 240.225C237.411 240.173 237.537 240.096 237.644 239.993C237.751 239.891 237.832 239.764 237.889 239.614L238.777 239.774C238.705 240.035 238.578 240.264 238.394 240.461C238.212 240.655 237.983 240.807 237.707 240.916C237.433 241.022 237.12 241.076 236.768 241.076Z" fill="black"/>
<path d="M122.416 47.0098C169.144 47.01 207.024 84.891 207.024 131.619C207.024 178.347 169.143 216.227 122.416 216.228C75.6874 216.228 37.8064 178.347 37.8062 131.619C37.8062 84.8909 75.6873 47.0098 122.416 47.0098Z" stroke="#FFF6ED" stroke-width="48"/>
<path d="M92.4858 27.2584C125.3 17.8105 160.645 24.3059 187.976 44.8887C215.308 65.4715 231.335 97.6954 231.335 131.859H183.084C183.084 112.879 174.142 94.9116 158.958 83.5236C143.774 72.1356 124.035 68.5083 105.814 73.7384L92.4858 27.2584Z" fill="#DF6D27"/>
</g>
<defs>
<clipPath id="clip0_59_1510">
<rect width="266" height="257.716" rx="14.7266" fill="white"/>
</clipPath>
</defs>
</svg>
