<svg width="80" height="80" viewBox="0 0 80 80" fill="none" xmlns="http://www.w3.org/2000/svg">
<rect width="80" height="80" rx="8" fill="#F5F5FD"/>
<path d="M41.75 27.5C42.2804 27.5 42.7891 27.7107 43.1642 28.0858C43.5393 28.4609 43.75 28.9696 43.75 29.5V51.25H45V42C45 41.4696 45.2107 40.9609 45.5858 40.5858C45.9609 40.2107 46.4696 40 47 40H50.5C51.0304 40 51.5391 40.2107 51.9142 40.5858C52.2893 40.9609 52.5 41.4696 52.5 42V51.25C52.8315 51.25 53.1495 51.3817 53.3839 51.6161C53.6183 51.8505 53.75 52.1685 53.75 52.5C53.75 52.8315 53.6183 53.1495 53.3839 53.3839C53.1495 53.6183 52.8315 53.75 52.5 53.75H27.5C27.1685 53.75 26.8505 53.6183 26.6161 53.3839C26.3817 53.1495 26.25 52.8315 26.25 52.5C26.25 52.1685 26.3817 51.8505 26.6161 51.6161C26.8505 51.3817 27.1685 51.25 27.5 51.25V35.75C27.5 35.2196 27.7107 34.7109 28.0858 34.3358C28.4609 33.9607 28.9696 33.75 29.5 33.75H33C33.5304 33.75 34.0391 33.9607 34.4142 34.3358C34.7893 34.7109 35 35.2196 35 35.75V51.25H36.25V29.5C36.25 28.9696 36.4607 28.4609 36.8358 28.0858C37.2109 27.7107 37.7196 27.5 38.25 27.5H41.75Z" fill="#A9CAF9"/>
</svg>
