<svg width="103" height="38" viewBox="0 0 103 38" fill="none" xmlns="http://www.w3.org/2000/svg">
<g clip-path="url(#clip0_376_10102)">
<path fill-rule="evenodd" clip-rule="evenodd" d="M12.6196 25.2897L18.1776 22.0811C18.9127 21.6565 18.9127 20.5966 18.1776 20.173L12.7394 17.0332C11.7615 16.4688 10.9943 17.2106 10.9943 17.9346V24.3196C10.9943 25.0891 11.8047 25.7077 12.6196 25.2897ZM13.562 15.6706L20.6955 19.7894C21.1445 20.0489 21.6988 20.0489 22.1479 19.7894L22.1966 19.7606C22.9317 19.3371 22.9317 18.276 22.1966 17.8525L12.7383 12.3921C11.8845 11.8444 10.9931 12.4853 10.9931 13.2935V13.3999C10.9931 13.5973 10.7803 13.7204 10.6095 13.6217L9.57732 13.0263C9.48197 12.972 9.43208 12.8622 9.45315 12.7547C9.80572 10.9497 11.8934 9.99288 13.5609 11.0295L22.9927 16.4755C24.7811 17.5077 24.7866 20.0866 23.0116 21.1299V21.131L11.7681 27.6214C11.2881 27.8985 10.992 28.4108 10.992 28.9651C10.992 29.7734 11.8834 30.4153 12.7371 29.8665L22.1955 24.4061C22.9306 23.9826 22.9306 22.9215 22.1955 22.498L22.1035 22.4448C21.9328 22.3461 21.9328 22.1 22.1035 22.0013L23.1335 21.4059C23.2289 21.3516 23.3486 21.3627 23.4306 21.4348C24.77 22.6089 24.6236 24.8418 22.9916 25.7842L13.5598 31.2291C11.7404 32.3611 9.41767 31.1171 9.40104 28.9884L9.39993 28.9895V15.8956C9.39993 15.4067 9.13938 14.9555 8.71696 14.7115C7.86326 14.1638 6.97186 14.8047 6.97186 15.6129V26.6401C6.97186 27.4484 7.86326 28.0903 8.71696 27.5415C8.88771 27.4429 9.10058 27.5659 9.10058 27.7633V28.9485C9.10058 29.0593 9.03073 29.1569 8.9254 29.1924C7.23019 29.7545 5.38086 28.5493 5.38086 26.6401V15.6129C5.38086 13.523 7.59717 12.2768 9.40104 13.2669C10.7891 14.0685 12.175 14.869 13.562 15.6706Z" fill="#46237A"/>
<path d="M12.4531 23.1313C12.4531 23.4296 12.7813 23.6657 13.0962 23.4639L16.5831 21.4516C16.8536 21.2953 16.8536 20.9039 16.5831 20.7476L13.0962 18.7353C12.7813 18.5335 12.4531 18.7696 12.4531 19.0679V23.1313Z" fill="#18F040"/>
<path d="M33.2647 16.9558L31.8111 17.8172C31.5395 17.346 31.2801 17.0378 31.0339 16.8948C30.7778 16.7307 30.4474 16.6487 30.0416 16.6487C29.5438 16.6487 29.1314 16.7895 28.8032 17.0711C28.475 17.3483 28.311 17.6964 28.311 18.1166C28.311 18.6965 28.7411 19.1621 29.6026 19.5158L30.7867 20.0003C31.7502 20.3895 32.4553 20.8651 32.901 21.4272C33.3467 21.9882 33.5696 22.6767 33.5696 23.4916C33.5696 24.5837 33.2059 25.4862 32.4775 26.198C31.7446 26.9153 30.8344 27.2745 29.7478 27.2745C28.7178 27.2745 27.8664 26.9696 27.1945 26.3598C26.5337 25.7501 26.1201 24.8908 25.9561 23.7843L27.771 23.3841C27.8531 24.0815 27.9961 24.5637 28.2012 24.8298C28.5704 25.3421 29.1081 25.5993 29.8155 25.5993C30.3743 25.5993 30.8377 25.4119 31.2069 25.0383C31.5761 24.6646 31.7601 24.1901 31.7601 23.6158C31.7601 23.3852 31.728 23.1734 31.6637 22.9816C31.5994 22.7898 31.4996 22.6124 31.3643 22.4505C31.228 22.2887 31.0528 22.1379 30.8377 21.9971C30.6226 21.8563 30.3665 21.7221 30.0683 21.5935L28.923 21.1168C27.2976 20.4294 26.4849 19.4249 26.4849 18.1022C26.4849 17.2097 26.8253 16.4646 27.5071 15.8648C28.189 15.2595 29.0372 14.9579 30.0527 14.9579C31.4275 14.9568 32.4963 15.6231 33.2647 16.9558Z" fill="#353535"/>
<path d="M35.3984 14.0719H37.1291V20.1931C37.7445 19.6398 38.423 19.3627 39.1669 19.3627C40.0129 19.3627 40.6892 19.6365 41.197 20.1853C41.6272 20.6621 41.8434 21.4237 41.8434 22.4693V27.0604H40.1127V22.6311C40.1127 22.0313 40.0062 21.5967 39.7934 21.3273C39.5805 21.0579 39.2379 20.9237 38.7667 20.9237C38.1613 20.9237 37.7367 21.1111 37.4906 21.4847C37.25 21.8639 37.1291 22.5147 37.1291 23.4383V27.0604H35.3984V14.0719Z" fill="#353535"/>
<path d="M43.7754 16.4558C43.7754 16.1531 43.8852 15.8915 44.1058 15.6719C44.3264 15.4513 44.5903 15.3416 44.8974 15.3416C45.2101 15.3416 45.4762 15.4513 45.6968 15.6719C45.9174 15.887 46.0272 16.1509 46.0272 16.4636C46.0272 16.7762 45.9174 17.0434 45.6968 17.2629C45.4817 17.4836 45.2178 17.5933 44.9052 17.5933C44.5925 17.5933 44.3253 17.4836 44.1058 17.2629C43.8863 17.0434 43.7754 16.774 43.7754 16.4558ZM45.7666 19.5702V27.0595H44.0359V19.5702H45.7666Z" fill="#353535"/>
<path d="M49.6907 31.1362H47.96V19.5701H49.6907V20.385C50.3725 19.7032 51.1464 19.3628 52.0134 19.3628C53.0434 19.3628 53.8927 19.742 54.559 20.5003C55.2353 21.2542 55.5746 22.2044 55.5746 23.353C55.5746 24.4762 55.2386 25.4108 54.5668 26.1592C53.9004 26.902 53.06 27.2745 52.0444 27.2745C51.1675 27.2745 50.3836 26.9231 49.6918 26.2213V31.1362H49.6907ZM53.804 23.3619C53.804 22.6446 53.6088 22.0603 53.2197 21.609C52.825 21.1534 52.3272 20.925 51.7274 20.925C51.0921 20.925 50.5765 21.1456 50.1818 21.5858C49.7871 22.027 49.5898 22.6058 49.5898 23.3231C49.5898 24.026 49.7871 24.6048 50.1818 25.0604C50.571 25.5061 51.0843 25.729 51.7196 25.729C52.3194 25.729 52.8139 25.5039 53.2042 25.0527C53.6044 24.6026 53.804 24.0382 53.804 23.3619Z" fill="#353535"/>
<path d="M57.4033 19.5701H59.134V20.2387C59.4522 19.905 59.7338 19.6777 59.98 19.5546C60.2305 19.426 60.5288 19.3628 60.8725 19.3628C61.3281 19.3628 61.8049 19.5114 62.3027 19.8085L61.5111 21.3928C61.1829 21.1567 60.8625 21.0392 60.5498 21.0392C59.6063 21.0392 59.1351 21.7521 59.1351 23.1768V27.0594H57.4044V19.5701H57.4033Z" fill="#353535"/>
<path d="M62.8047 23.2611C62.8047 22.179 63.1916 21.2587 63.9655 20.5004C64.7394 19.742 65.6829 19.3629 66.7949 19.3629C67.9125 19.3629 68.8605 19.7454 69.6399 20.5081C70.4093 21.2721 70.7929 22.21 70.7929 23.3221C70.7929 24.4452 70.406 25.3854 69.6321 26.1437C68.8527 26.8976 67.897 27.2746 66.7639 27.2746C65.6408 27.2746 64.7006 26.8899 63.9422 26.1215C63.1839 25.3632 62.8047 24.4097 62.8047 23.2611ZM64.5731 23.2921C64.5731 24.0405 64.7726 24.6325 65.1729 25.0683C65.5831 25.5095 66.1242 25.7291 66.7949 25.7291C67.4712 25.7291 68.0123 25.5118 68.417 25.0749C68.8217 24.6392 69.0245 24.0571 69.0245 23.3298C69.0245 22.6014 68.8217 22.0204 68.417 21.5847C68.0067 21.1434 67.4657 20.9239 66.7949 20.9239C66.1341 20.9239 65.5975 21.1445 65.1873 21.5847C64.7782 22.026 64.5731 22.5947 64.5731 23.2921Z" fill="#353535"/>
<path d="M78.4477 19.8939V22.1934C78.053 21.7111 77.6993 21.3807 77.3866 21.2011C77.0795 21.0171 76.7181 20.9239 76.3023 20.9239C75.6515 20.9239 75.1104 21.1523 74.6803 21.608C74.2501 22.0648 74.0339 22.6358 74.0339 23.3232C74.0339 24.0261 74.2412 24.6026 74.657 25.0539C75.0772 25.5051 75.6127 25.7302 76.2646 25.7302C76.6804 25.7302 77.0462 25.6404 77.3644 25.4608C77.6716 25.2867 78.033 24.9485 78.4488 24.4452V26.7291C77.7458 27.0928 77.044 27.2746 76.3422 27.2746C75.1836 27.2746 74.2146 26.901 73.4352 26.1515C72.6558 25.3976 72.2666 24.4629 72.2666 23.3442C72.2666 22.2267 72.6613 21.2831 73.4507 20.5148C74.2401 19.7454 75.2091 19.3618 76.3577 19.3618C77.0939 19.3629 77.7913 19.5403 78.4477 19.8939Z" fill="#353535"/>
<path d="M82.2599 14.0719V21.9925L84.6979 19.57H87.0207L83.7677 22.7154L87.259 27.0604H85.0139L82.5381 23.8995L82.261 24.1767V27.0604H80.5303V14.0719H82.2599Z" fill="#353535"/>
<path d="M94.9399 23.7233H89.5727C89.6193 24.3387 89.8188 24.8276 90.1725 25.1924C90.5262 25.5516 90.9796 25.7301 91.534 25.7301C91.9642 25.7301 92.3212 25.6281 92.6028 25.423C92.88 25.2179 93.1948 24.8387 93.5485 24.2855L95.0098 25.1004C94.7836 25.4851 94.5452 25.8144 94.2947 26.0882C94.043 26.3621 93.7747 26.5883 93.4875 26.7645C93.2004 26.9419 92.8899 27.0705 92.5573 27.1526C92.2236 27.2346 91.8622 27.2756 91.473 27.2756C90.3554 27.2756 89.4585 26.9164 88.7822 26.1991C88.1059 25.4762 87.7666 24.5172 87.7666 23.3231C87.7666 22.139 88.0948 21.18 88.7511 20.4471C89.4119 19.7242 90.2889 19.3628 91.381 19.3628C92.4831 19.3628 93.3545 19.7143 93.9953 20.4161C94.6306 21.1134 94.9488 22.0791 94.9488 23.3153L94.9399 23.7233ZM93.1638 22.3075C92.9232 21.3851 92.3411 20.9239 91.4187 20.9239C91.208 20.9239 91.0107 20.956 90.8266 21.0203C90.6426 21.0846 90.4741 21.1766 90.3233 21.2975C90.1725 21.4183 90.0428 21.5625 89.9352 21.7321C89.8277 21.9017 89.7457 22.0935 89.6891 22.3086H93.1638V22.3075Z" fill="#353535"/>
<path d="M98.7562 21.1855V27.0606H97.0255V21.1855H96.2871V19.5701H97.0255V16.825H98.7562V19.5701H100.102V21.1844L98.7562 21.1855Z" fill="#353535"/>
</g>
<defs>
<clipPath id="clip0_376_10102">
<rect width="94.7214" height="21.0544" fill="white" transform="translate(5.38086 10.6029)"/>
</clipPath>
</defs>
</svg>
