<svg width="29" height="29" viewBox="0 0 29 29" fill="none" xmlns="http://www.w3.org/2000/svg">
<path d="M14.5001 2.41699C21.1804 2.41699 26.5834 7.81997 26.5834 14.5003C26.5834 21.1807 21.1804 26.5837 14.5001 26.5837C7.81972 26.5837 2.41675 21.1807 2.41675 14.5003C2.41675 7.81997 7.81972 2.41699 14.5001 2.41699ZM12.2906 20.87C17.6417 20.87 20.5763 16.4337 20.5763 12.5843V12.2045C21.1459 11.7902 21.6465 11.2723 22.0263 10.6854C21.5084 10.9098 20.9388 11.0652 20.3519 11.1515C20.956 10.789 21.4221 10.2194 21.6292 9.54616C21.0596 9.87414 20.4382 10.1158 19.7822 10.2539C19.2471 9.68425 18.4876 9.33902 17.659 9.33902C16.0537 9.33902 14.7417 10.6509 14.7417 12.2563C14.7417 12.4807 14.759 12.7051 14.8281 12.9122C12.4114 12.7914 10.2537 11.6348 8.82091 9.87414C8.57925 10.3057 8.42389 10.8063 8.42389 11.3414C8.42389 12.3426 8.94175 13.2402 9.71853 13.7581C9.2352 13.7581 8.78639 13.62 8.40663 13.3956V13.4301C8.40663 14.8456 9.40782 16.0194 10.737 16.2956C10.4953 16.3646 10.2364 16.3991 9.97746 16.3991C9.78758 16.3991 9.61496 16.3819 9.42508 16.3473C9.78758 17.5039 10.8751 18.3497 12.1352 18.367C11.134 19.1438 9.87389 19.6098 8.5102 19.6098C8.26853 19.6098 8.04413 19.6098 7.81972 19.5753C9.09711 20.4039 10.6334 20.8872 12.2733 20.8872" fill="white"/>
</svg>
