<svg width="146" height="36" viewBox="0 0 146 36" fill="none" xmlns="http://www.w3.org/2000/svg">
<path d="M7.68655 1.86941L15.5967 26.7345H15.9003L23.8265 1.86941H31.4969L20.215 34.5967H11.2981L0.000111042 1.86941H7.68655ZM35.3082 34.5967V10.0512H42.1157V34.5967H35.3082ZM38.7279 6.88716C37.7158 6.88716 36.8476 6.55158 36.1232 5.88041C35.4094 5.1986 35.0525 4.38361 35.0525 3.43546C35.0525 2.49796 35.4094 1.69362 36.1232 1.02246C36.8476 0.340642 37.7158 -0.000268042 38.7279 -0.000268042C39.74 -0.000268042 40.6029 0.340642 41.3167 1.02246C42.0411 1.69362 42.4033 2.49796 42.4033 3.43546C42.4033 4.38361 42.0411 5.1986 41.3167 5.88041C40.6029 6.55158 39.74 6.88716 38.7279 6.88716ZM47.4411 34.5967V30.5377L59.4581 15.6602V15.4845H47.8566V10.0512H67.6559V14.4777L56.374 28.9877V29.1634H68.0714V34.5967H47.4411ZM73.2769 34.5967V10.0512H80.0845V34.5967H73.2769ZM76.6967 6.88716C75.6846 6.88716 74.8163 6.55158 74.0919 5.88041C73.3781 5.1986 73.0212 4.38361 73.0212 3.43546C73.0212 2.49796 73.3781 1.69362 74.0919 1.02246C74.8163 0.340642 75.6846 -0.000268042 76.6967 -0.000268042C77.7087 -0.000268042 78.5717 0.340642 79.2854 1.02246C80.0099 1.69362 80.3721 2.49796 80.3721 3.43546C80.3721 4.38361 80.0099 5.1986 79.2854 5.88041C78.5717 6.55158 77.7087 6.88716 76.6967 6.88716ZM98.5934 10.0512V15.1649H83.8118V10.0512H98.5934ZM87.1676 4.17054H93.9752V27.0541C93.9752 27.6826 94.071 28.1727 94.2628 28.5242C94.4546 28.8651 94.7209 29.1048 95.0618 29.2433C95.4134 29.3818 95.8182 29.4511 96.2763 29.4511C96.5959 29.4511 96.9155 29.4244 97.2351 29.3712C97.5547 29.3073 97.7997 29.2593 97.9702 29.2274L99.0409 34.2931C98.7 34.3996 98.2205 34.5221 97.6027 34.6606C96.9848 34.8097 96.2337 34.9003 95.3495 34.9323C93.7088 34.9962 92.2706 34.7778 91.0348 34.2771C89.8097 33.7764 88.8562 32.9987 88.1744 31.944C87.4926 30.8893 87.157 29.5576 87.1676 27.949V4.17054ZM113.854 35.0761C111.372 35.0761 109.226 34.5487 107.414 33.4941C105.614 32.4287 104.224 30.9479 103.244 29.0516C102.264 27.1446 101.773 24.934 101.773 22.4198C101.773 19.8843 102.264 17.6684 103.244 15.7721C104.224 13.8651 105.614 12.3843 107.414 11.3296C109.226 10.2643 111.372 9.73162 113.854 9.73162C116.337 9.73162 118.478 10.2643 120.278 11.3296C122.09 12.3843 123.485 13.8651 124.465 15.7721C125.445 17.6684 125.935 19.8843 125.935 22.4198C125.935 24.934 125.445 27.1446 124.465 29.0516C123.485 30.9479 122.09 32.4287 120.278 33.4941C118.478 34.5487 116.337 35.0761 113.854 35.0761ZM113.886 29.8026C115.016 29.8026 115.958 29.483 116.715 28.8438C117.471 28.194 118.041 27.3097 118.425 26.1911C118.819 25.0725 119.016 23.7994 119.016 22.3719C119.016 20.9443 118.819 19.6713 118.425 18.5526C118.041 17.434 117.471 16.5498 116.715 15.8999C115.958 15.2501 115.016 14.9252 113.886 14.9252C112.746 14.9252 111.788 15.2501 111.01 15.8999C110.243 16.5498 109.662 17.434 109.268 18.5526C108.885 19.6713 108.693 20.9443 108.693 22.3719C108.693 23.7994 108.885 25.0725 109.268 26.1911C109.662 27.3097 110.243 28.194 111.01 28.8438C111.788 29.483 112.746 29.8026 113.886 29.8026ZM130.362 34.5967V10.0512H136.962V14.3339H137.217C137.665 12.8105 138.416 11.6599 139.471 10.8822C140.525 10.0938 141.74 9.69966 143.114 9.69966C143.455 9.69966 143.822 9.72097 144.217 9.76358C144.611 9.8062 144.957 9.86479 145.255 9.93936V15.9798C144.936 15.884 144.494 15.7987 143.929 15.7242C143.364 15.6496 142.848 15.6123 142.379 15.6123C141.378 15.6123 140.483 15.8307 139.694 16.2675C138.917 16.6936 138.299 17.2902 137.841 18.0573C137.393 18.8243 137.169 19.7085 137.169 20.71V34.5967H130.362Z" fill="white"/>
</svg>
