<svg width="48" height="48" viewBox="0 0 48 48" fill="none" xmlns="http://www.w3.org/2000/svg">
<path fill-rule="evenodd" clip-rule="evenodd" d="M16.521 22.0605C16.8615 20.7886 17.5308 19.6288 18.4616 18.6977C19.3925 17.7665 20.552 17.0968 21.8238 16.7558C23.0955 16.4149 24.4346 16.4147 25.7064 16.7554C26.9782 17.0961 28.138 17.7655 29.069 18.6965L30.972 20.5995H27.789C27.5901 20.5995 27.3993 20.6785 27.2587 20.8192C27.118 20.9598 27.039 21.1506 27.039 21.3495C27.039 21.5484 27.118 21.7392 27.2587 21.8798C27.3993 22.0205 27.5901 22.0995 27.789 22.0995H32.781C32.9799 22.0995 33.1707 22.0205 33.3113 21.8798C33.452 21.7392 33.531 21.5484 33.531 21.3495V16.3575C33.531 16.1586 33.452 15.9678 33.3113 15.8272C33.1707 15.6865 32.9799 15.6075 32.781 15.6075C32.5821 15.6075 32.3913 15.6865 32.2507 15.8272C32.11 15.9678 32.031 16.1586 32.031 16.3575V19.5375L30.131 17.6375C29.014 16.52 27.6224 15.7162 26.0962 15.307C24.57 14.8978 22.963 14.8977 21.4368 15.3065C19.9105 15.7154 18.5188 16.5188 17.4015 17.6362C16.2842 18.7535 15.4808 20.1452 15.072 21.6715C15.0465 21.7667 15.04 21.866 15.0529 21.9637C15.0658 22.0614 15.0979 22.1556 15.1472 22.241C15.1965 22.3263 15.2621 22.4011 15.3403 22.4611C15.4185 22.5211 15.5078 22.565 15.603 22.5905C15.6982 22.616 15.7975 22.6225 15.8952 22.6096C15.9929 22.5967 16.0871 22.5646 16.1725 22.5153C16.2578 22.466 16.3326 22.4004 16.3926 22.3222C16.4525 22.244 16.4965 22.1547 16.522 22.0595L16.521 22.0605ZM31.929 25.4125C31.8339 25.3869 31.7346 25.3804 31.6369 25.3932C31.5392 25.406 31.445 25.4379 31.3597 25.4871C31.2744 25.5363 31.1996 25.6019 31.1395 25.68C31.0795 25.7582 31.0355 25.8474 31.01 25.9425C30.6695 27.2144 30.0002 28.3742 29.0694 29.3054C28.1385 30.2365 26.979 30.9063 25.7072 31.2472C24.4355 31.5882 23.0964 31.5883 21.8246 31.2476C20.5528 30.907 19.393 30.2375 18.462 29.3065L16.56 27.4035H19.743C19.9419 27.4035 20.1327 27.3245 20.2733 27.1838C20.414 27.0432 20.493 26.8524 20.493 26.6535C20.493 26.4546 20.414 26.2638 20.2733 26.1232C20.1327 25.9825 19.9419 25.9035 19.743 25.9035H14.75C14.5511 25.9035 14.3603 25.9825 14.2197 26.1232C14.079 26.2638 14 26.4546 14 26.6535V31.6455C14 31.8444 14.079 32.0352 14.2197 32.1758C14.3603 32.3165 14.5511 32.3955 14.75 32.3955C14.9489 32.3955 15.1397 32.3165 15.2803 32.1758C15.421 32.0352 15.5 31.8444 15.5 31.6455V28.4655L17.4 30.3655C18.5171 31.483 19.9087 32.2868 21.435 32.6959C22.9612 33.105 24.5683 33.1051 26.0946 32.6961C27.6209 32.2872 29.0126 31.4836 30.1298 30.3662C31.247 29.2487 32.0503 27.8569 32.459 26.3305C32.5103 26.1385 32.4833 25.934 32.384 25.7618C32.2846 25.5897 32.121 25.4641 31.929 25.4125Z" fill="black"/>
<rect x="0.5" y="0.5" width="47" height="47" rx="4.5" stroke="#E0E0E0"/>
</svg>
