<svg width="48" height="48" viewBox="0 0 48 48" fill="none" xmlns="http://www.w3.org/2000/svg">
<rect x="0.5" y="0.5" width="47" height="47" rx="4.5" stroke="#E0E0E0"/>
<path d="M19.913 14.658C21.988 14.388 24.103 14.25 26.25 14.25C28.397 14.25 30.512 14.389 32.587 14.658C34.509 14.908 35.878 16.519 35.992 18.385C35.6577 18.2736 35.3112 18.2028 34.96 18.174C32.1582 17.9414 29.3418 17.9414 26.54 18.174C24.182 18.37 22.5 20.364 22.5 22.608V26.894C22.4991 27.7178 22.7258 28.5258 23.1551 29.2288C23.5845 29.9319 24.1997 30.5026 24.933 30.878L22.28 33.53C22.1751 33.6348 22.0415 33.7061 21.8961 33.735C21.7507 33.7638 21.6 33.749 21.4631 33.6923C21.3261 33.6356 21.209 33.5395 21.1266 33.4163C21.0442 33.2931 21.0001 33.1482 21 33V28.97C20.6372 28.9314 20.2748 28.8888 19.913 28.842C17.905 28.58 16.5 26.833 16.5 24.862V18.638C16.5 16.668 17.905 14.919 19.913 14.658Z" fill="black"/>
<path d="M30.75 19.5C29.374 19.5 28.011 19.557 26.664 19.669C25.124 19.797 24 21.103 24 22.609V26.894C24 28.401 25.128 29.708 26.67 29.834C27.913 29.936 29.17 29.991 30.438 29.999L33.22 32.78C33.3249 32.8848 33.4585 32.9561 33.6039 32.985C33.7493 33.0139 33.9 32.999 34.0369 32.9423C34.1739 32.8856 34.291 32.7896 34.3734 32.6663C34.4558 32.5431 34.4999 32.3982 34.5 32.25V29.86L34.83 29.834C36.372 29.709 37.5 28.401 37.5 26.894V22.608C37.5 21.103 36.375 19.797 34.836 19.668C33.4769 19.5556 32.1137 19.4996 30.75 19.5Z" fill="black"/>
</svg>
