<svg width="48" height="48" viewBox="0 0 48 48" fill="none" xmlns="http://www.w3.org/2000/svg">
<rect x="0.5" y="0.5" width="47" height="47" rx="4.5" stroke="#E0E0E0"/>
<path fill-rule="evenodd" clip-rule="evenodd" d="M27.75 16.5C27.7499 15.8026 27.9928 15.127 28.4369 14.5893C28.881 14.0516 29.4986 13.6855 30.1834 13.5537C30.8682 13.422 31.5776 13.533 32.1894 13.8676C32.8013 14.2022 33.2775 14.7396 33.5361 15.3872C33.7947 16.0349 33.8196 16.7524 33.6065 17.4164C33.3934 18.0804 32.9557 18.6495 32.3685 19.0257C31.7813 19.402 31.0814 19.5619 30.3891 19.478C29.6968 19.3941 29.0553 19.0716 28.575 18.566L20.154 23.245C20.2827 23.7401 20.2827 24.2599 20.154 24.755L28.575 29.434C29.0782 28.9049 29.7572 28.5775 30.4846 28.5132C31.212 28.4489 31.9378 28.6521 32.5261 29.0847C33.1144 29.5173 33.5247 30.1496 33.6801 30.8631C33.8355 31.5766 33.7253 32.3223 33.3702 32.9603C33.0151 33.5984 32.4395 34.0851 31.7513 34.3291C31.063 34.5731 30.3094 34.5577 29.6317 34.2858C28.954 34.0139 28.3987 33.5042 28.07 32.8521C27.7413 32.2001 27.6616 31.4506 27.846 30.744L19.425 26.066C19.0118 26.501 18.4778 26.8021 17.8917 26.9305C17.3057 27.0589 16.6947 27.0086 16.1375 26.7862C15.5803 26.5638 15.1026 26.1794 14.7661 25.6827C14.4296 25.1861 14.2498 24.5999 14.2498 24C14.2498 23.4001 14.4296 22.8139 14.7661 22.3173C15.1026 21.8206 15.5803 21.4362 16.1375 21.2138C16.6947 20.9914 17.3057 20.9411 17.8917 21.0695C18.4778 21.1979 19.0118 21.499 19.425 21.934L27.846 17.255C27.7821 17.0084 27.7498 16.7547 27.75 16.5Z" fill="black"/>
</svg>
