<svg width="48" height="48" viewBox="0 0 48 48" fill="none" xmlns="http://www.w3.org/2000/svg">
<rect x="0.5" y="0.5" width="47" height="47" rx="4.5" stroke="#E0E0E0"/>
<path d="M17.507 16.048C17.7886 15.7193 18.138 15.4555 18.5313 15.2746C18.9245 15.0937 19.3522 15 19.785 15H28.215C28.6478 15 29.0755 15.0937 29.4687 15.2746C29.862 15.4555 30.2114 15.7193 30.493 16.048L32.215 18.056C31.9785 18.0185 31.7394 17.9998 31.5 18H16.5C16.257 18 16.018 18.02 15.785 18.056L17.507 16.048Z" fill="black"/>
<path fill-rule="evenodd" clip-rule="evenodd" d="M13.5 22.5C13.5 21.7044 13.8161 20.9413 14.3787 20.3787C14.9413 19.8161 15.7044 19.5 16.5 19.5H31.5C32.2956 19.5 33.0587 19.8161 33.6213 20.3787C34.1839 20.9413 34.5 21.7044 34.5 22.5C34.5 23.2956 34.1839 24.0587 33.6213 24.6213C33.0587 25.1839 32.2956 25.5 31.5 25.5H16.5C15.7044 25.5 14.9413 25.1839 14.3787 24.6213C13.8161 24.0587 13.5 23.2956 13.5 22.5ZM28.5 22.5C28.5 22.6989 28.421 22.8897 28.2803 23.0303C28.1397 23.171 27.9489 23.25 27.75 23.25C27.5511 23.25 27.3603 23.171 27.2197 23.0303C27.079 22.8897 27 22.6989 27 22.5C27 22.3011 27.079 22.1103 27.2197 21.9697C27.3603 21.829 27.5511 21.75 27.75 21.75C27.9489 21.75 28.1397 21.829 28.2803 21.9697C28.421 22.1103 28.5 22.3011 28.5 22.5ZM30.75 23.25C30.9489 23.25 31.1397 23.171 31.2803 23.0303C31.421 22.8897 31.5 22.6989 31.5 22.5C31.5 22.3011 31.421 22.1103 31.2803 21.9697C31.1397 21.829 30.9489 21.75 30.75 21.75C30.5511 21.75 30.3603 21.829 30.2197 21.9697C30.079 22.1103 30 22.3011 30 22.5C30 22.6989 30.079 22.8897 30.2197 23.0303C30.3603 23.171 30.5511 23.25 30.75 23.25ZM16.5 27C15.7044 27 14.9413 27.3161 14.3787 27.8787C13.8161 28.4413 13.5 29.2044 13.5 30C13.5 30.7956 13.8161 31.5587 14.3787 32.1213C14.9413 32.6839 15.7044 33 16.5 33H31.5C32.2956 33 33.0587 32.6839 33.6213 32.1213C34.1839 31.5587 34.5 30.7956 34.5 30C34.5 29.2044 34.1839 28.4413 33.6213 27.8787C33.0587 27.3161 32.2956 27 31.5 27H16.5ZM27.75 30.75C27.9489 30.75 28.1397 30.671 28.2803 30.5303C28.421 30.3897 28.5 30.1989 28.5 30C28.5 29.8011 28.421 29.6103 28.2803 29.4697C28.1397 29.329 27.9489 29.25 27.75 29.25C27.5511 29.25 27.3603 29.329 27.2197 29.4697C27.079 29.6103 27 29.8011 27 30C27 30.1989 27.079 30.3897 27.2197 30.5303C27.3603 30.671 27.5511 30.75 27.75 30.75ZM31.5 30C31.5 30.1989 31.421 30.3897 31.2803 30.5303C31.1397 30.671 30.9489 30.75 30.75 30.75C30.5511 30.75 30.3603 30.671 30.2197 30.5303C30.079 30.3897 30 30.1989 30 30C30 29.8011 30.079 29.6103 30.2197 29.4697C30.3603 29.329 30.5511 29.25 30.75 29.25C30.9489 29.25 31.1397 29.329 31.2803 29.4697C31.421 29.6103 31.5 29.8011 31.5 30Z" fill="black"/>
</svg>
