<svg width="48" height="48" viewBox="0 0 48 48" fill="none" xmlns="http://www.w3.org/2000/svg">
<rect x="0.5" y="0.5" width="47" height="47" rx="4.5" stroke="#E0E0E0"/>
<path d="M15.53 14.47C15.3878 14.3375 15.1998 14.2654 15.0055 14.2688C14.8112 14.2723 14.6258 14.351 14.4884 14.4884C14.351 14.6258 14.2723 14.8112 14.2688 15.0055C14.2654 15.1998 14.3375 15.3878 14.47 15.53L32.47 33.53C32.5387 33.6037 32.6215 33.6628 32.7135 33.7038C32.8055 33.7448 32.9048 33.7668 33.0055 33.7686C33.1062 33.7704 33.2062 33.7518 33.2996 33.7141C33.393 33.6764 33.4778 33.6203 33.549 33.549C33.6203 33.4778 33.6764 33.393 33.7141 33.2996C33.7518 33.2062 33.7704 33.1062 33.7686 33.0055C33.7668 32.9048 33.7448 32.8055 33.7038 32.7135C33.6628 32.6215 33.6037 32.5387 33.53 32.47L15.53 14.47ZM34.676 24.553C34.137 26.1705 33.2373 27.6443 32.045 28.863L28.946 25.764C29.2803 24.8279 29.3421 23.8162 29.124 22.8464C28.906 21.8766 28.4171 20.9886 27.7142 20.2858C27.0114 19.5829 26.1234 19.094 25.1536 18.876C24.1838 18.6579 23.1721 18.7197 22.236 19.054L19.759 16.577C21.106 16.029 22.5468 15.7481 24.001 15.75C28.971 15.75 33.186 18.973 34.676 23.44C34.796 23.802 34.796 24.192 34.676 24.553Z" fill="black"/>
<path d="M27.75 24C27.75 24.18 27.737 24.357 27.713 24.53L23.469 20.287C24.001 20.2109 24.5431 20.25 25.0586 20.4017C25.5742 20.5535 26.0511 20.8142 26.4571 21.1663C26.863 21.5184 27.1886 21.9537 27.4117 22.4426C27.6347 22.9315 27.7501 23.4626 27.75 24ZM24.53 27.713L20.287 23.469C20.2046 24.0455 20.2575 24.6332 20.4417 25.1857C20.6258 25.7381 20.9361 26.2401 21.3479 26.6519C21.7597 27.0636 22.2618 27.3737 22.8143 27.5578C23.3668 27.7418 23.9546 27.7946 24.531 27.712L24.53 27.713Z" fill="black"/>
<path d="M18.75 24C18.75 23.381 18.857 22.787 19.054 22.236L15.954 19.136C14.7621 20.3548 13.8628 21.8286 13.324 23.446C13.204 23.808 13.204 24.198 13.324 24.56C14.813 29.027 19.028 32.25 23.999 32.25C25.499 32.25 26.932 31.956 28.241 31.423L25.764 28.946C24.9716 29.2287 24.123 29.3168 23.2895 29.2029C22.4559 29.0891 21.662 28.7766 20.9745 28.2918C20.287 27.807 19.726 27.164 19.3389 26.4171C18.9518 25.6702 18.7498 24.8413 18.75 24Z" fill="black"/>
</svg>
