<svg width="48" height="48" viewBox="0 0 48 48" fill="none" xmlns="http://www.w3.org/2000/svg">
<rect x="0.5" y="0.5" width="47" height="47" rx="4.5" stroke="#E0E0E0"/>
<path fill-rule="evenodd" clip-rule="evenodd" d="M21 16.5C21.163 16.5 21.3215 16.5531 21.4516 16.6513C21.5817 16.7495 21.6762 16.8873 21.721 17.044L22.534 19.89C22.709 20.5029 23.0374 21.0611 23.4882 21.5118C23.9389 21.9626 24.4971 22.291 25.11 22.466L27.956 23.279C28.1126 23.3239 28.2503 23.4185 28.3484 23.5486C28.4464 23.6786 28.4995 23.8371 28.4995 24C28.4995 24.1629 28.4464 24.3214 28.3484 24.4514C28.2503 24.5815 28.1126 24.6761 27.956 24.721L25.11 25.534C24.4971 25.709 23.9389 26.0374 23.4882 26.4882C23.0374 26.9389 22.709 27.4971 22.534 28.11L21.721 30.956C21.6761 31.1126 21.5815 31.2503 21.4514 31.3484C21.3214 31.4464 21.1629 31.4995 21 31.4995C20.8371 31.4995 20.6786 31.4464 20.5486 31.3484C20.4185 31.2503 20.3239 31.1126 20.279 30.956L19.466 28.11C19.2909 27.4971 18.9625 26.9389 18.5118 26.4882C18.0611 26.0374 17.5029 25.709 16.89 25.534L14.044 24.721C13.8874 24.6761 13.7497 24.5815 13.6516 24.4514C13.5536 24.3214 13.5005 24.1629 13.5005 24C13.5005 23.8371 13.5536 23.6786 13.6516 23.5486C13.7497 23.4185 13.8874 23.3239 14.044 23.279L16.89 22.466C17.5029 22.291 18.0611 21.9626 18.5118 21.5118C18.9625 21.0611 19.2909 20.5029 19.466 19.89L20.279 17.044C20.3238 16.8873 20.4183 16.7495 20.5484 16.6513C20.6785 16.5531 20.837 16.5 21 16.5ZM30 13.5C30.1673 13.4999 30.3299 13.5558 30.4618 13.6587C30.5937 13.7616 30.6874 13.9057 30.728 14.068L30.986 15.104C31.222 16.044 31.956 16.778 32.896 17.014L33.932 17.272C34.0946 17.3123 34.2391 17.4059 34.3423 17.5378C34.4456 17.6697 34.5017 17.8325 34.5017 18C34.5017 18.1675 34.4456 18.3303 34.3423 18.4622C34.2391 18.5941 34.0946 18.6877 33.932 18.728L32.896 18.986C31.956 19.222 31.222 19.956 30.986 20.896L30.728 21.932C30.6877 22.0946 30.5941 22.2391 30.4622 22.3423C30.3303 22.4456 30.1675 22.5017 30 22.5017C29.8325 22.5017 29.6697 22.4456 29.5378 22.3423C29.4058 22.2391 29.3123 22.0946 29.272 21.932L29.014 20.896C28.8986 20.4344 28.6599 20.0129 28.3235 19.6765C27.9871 19.3401 27.5656 19.1014 27.104 18.986L26.068 18.728C25.9054 18.6877 25.7609 18.5941 25.6577 18.4622C25.5544 18.3303 25.4983 18.1675 25.4983 18C25.4983 17.8325 25.5544 17.6697 25.6577 17.5378C25.7609 17.4059 25.9054 17.3123 26.068 17.272L27.104 17.014C27.5656 16.8986 27.9871 16.6599 28.3235 16.3235C28.6599 15.9871 28.8986 15.5656 29.014 15.104L29.272 14.068C29.3126 13.9057 29.4063 13.7616 29.5382 13.6587C29.6701 13.5558 29.8327 13.4999 30 13.5ZM28.5 27C28.6575 26.9999 28.8111 27.0494 28.9389 27.1415C29.0667 27.2336 29.1622 27.3636 29.212 27.513L29.606 28.696C29.756 29.143 30.106 29.495 30.554 29.644L31.737 30.039C31.886 30.089 32.0155 30.1845 32.1072 30.3121C32.1989 30.4397 32.2483 30.5929 32.2483 30.75C32.2483 30.9071 32.1989 31.0603 32.1072 31.1879C32.0155 31.3155 31.886 31.411 31.737 31.461L30.554 31.856C30.107 32.006 29.755 32.356 29.606 32.804L29.211 33.987C29.161 34.136 29.0654 34.2655 28.9379 34.3572C28.8103 34.4489 28.6571 34.4983 28.5 34.4983C28.3429 34.4983 28.1897 34.4489 28.0621 34.3572C27.9345 34.2655 27.839 34.136 27.789 33.987L27.394 32.804C27.3203 32.5833 27.1963 32.3827 27.0318 32.2182C26.8673 32.0537 26.6667 31.9297 26.446 31.856L25.263 31.461C25.114 31.411 24.9845 31.3155 24.8928 31.1879C24.8011 31.0603 24.7517 30.9071 24.7517 30.75C24.7517 30.5929 24.8011 30.4397 24.8928 30.3121C24.9845 30.1845 25.114 30.089 25.263 30.039L26.446 29.644C26.893 29.494 27.245 29.144 27.394 28.696L27.789 27.513C27.8387 27.3637 27.9341 27.2339 28.0617 27.1418C28.1893 27.0497 28.3426 27.0001 28.5 27Z" fill="black"/>
</svg>
