<svg width="48" height="48" viewBox="0 0 48 48" fill="none" xmlns="http://www.w3.org/2000/svg">
<rect x="0.5" y="0.5" width="47" height="47" rx="4.5" stroke="#E0E0E0"/>
<path fill-rule="evenodd" clip-rule="evenodd" d="M24 14.25C18.615 14.25 14.25 18.615 14.25 24C14.25 29.385 18.615 33.75 24 33.75C29.385 33.75 33.75 29.385 33.75 24C33.75 18.615 29.385 14.25 24 14.25ZM24.75 18C24.75 17.8011 24.671 17.6103 24.5303 17.4697C24.3897 17.329 24.1989 17.25 24 17.25C23.8011 17.25 23.6103 17.329 23.4697 17.4697C23.329 17.6103 23.25 17.8011 23.25 18V24C23.25 24.414 23.586 24.75 24 24.75H28.5C28.6989 24.75 28.8897 24.671 29.0303 24.5303C29.171 24.3897 29.25 24.1989 29.25 24C29.25 23.8011 29.171 23.6103 29.0303 23.4697C28.8897 23.329 28.6989 23.25 28.5 23.25H24.75V18Z" fill="black"/>
</svg>
