<svg width="48" height="48" viewBox="0 0 48 48" fill="none" xmlns="http://www.w3.org/2000/svg">
<rect x="0.5" y="0.5" width="47" height="47" rx="4.5" stroke="#E0E0E0"/>
<path d="M19.493 30.5C19.068 30.5 18.673 30.264 18.518 29.868C18.1748 28.9943 17.999 28.0637 18 27.125C18 25.375 18.599 23.767 19.602 22.491C19.753 22.299 19.975 22.182 20.202 22.094C20.675 21.911 21.092 21.58 21.414 21.17C22.1903 20.1796 23.1647 19.3622 24.275 18.77C24.998 18.386 25.625 17.814 25.928 17.055C26.1408 16.5233 26.2501 15.9558 26.25 15.383V14.75C26.25 14.5511 26.329 14.3603 26.4697 14.2197C26.6103 14.079 26.8011 14 27 14C27.5967 14 28.169 14.2371 28.591 14.659C29.013 15.081 29.25 15.6533 29.25 16.25C29.25 17.402 28.99 18.493 28.527 19.468C28.261 20.026 28.634 20.75 29.252 20.75H32.378C33.404 20.75 34.323 21.444 34.432 22.465C34.477 22.887 34.5 23.315 34.5 23.75C34.5041 26.4863 33.5691 29.1412 31.851 31.271C31.463 31.753 30.864 32 30.246 32H26.23C25.747 32 25.266 31.922 24.807 31.77L21.693 30.73C21.2341 30.5774 20.7536 30.4997 20.27 30.5H19.493ZM14.331 22.727C13.7799 24.1277 13.498 25.6198 13.5 27.125C13.4987 28.3133 13.674 29.4952 14.02 30.632C14.28 31.482 15.105 32 15.994 32H16.9C17.345 32 17.62 31.502 17.423 31.102C16.8131 29.8651 16.4969 28.5041 16.499 27.125C16.499 25.417 16.975 23.82 17.801 22.459C18.046 22.056 17.773 21.5 17.301 21.5H16.25C15.418 21.5 14.637 21.953 14.331 22.727Z" fill="black"/>
</svg>
