<svg width="48" height="48" viewBox="0 0 48 48" fill="none" xmlns="http://www.w3.org/2000/svg">
<path d="M30.0999 20.2L29.875 20.5L30.0999 20.8L34.18 26.24C34.3026 26.4035 34.3772 26.5977 34.3955 26.8012C34.4139 27.0046 34.3753 27.2092 34.2839 27.3919C34.1926 27.5746 34.052 27.7283 33.8783 27.8357C33.7045 27.9431 33.5042 27.9999 33.2999 27.9999H17.3C16.743 27.9999 16.2089 28.2213 15.8151 28.6151C15.4213 29.009 15.2 29.543 15.2 30.0999V34.9C15.2 35.1918 15.0841 35.4715 14.8778 35.6778C14.6715 35.8841 14.3917 36 14.1 36C13.8083 36 13.5285 35.8841 13.3222 35.6778C13.1159 35.4715 13 35.1918 13 34.9V17.3C13 16.1596 13.453 15.0659 14.2594 14.2594C15.0659 13.453 16.1596 13 17.3 13H33.2999C33.5042 13 33.7045 13.0569 33.8783 13.1643C34.052 13.2717 34.1926 13.4254 34.2839 13.6081C34.3753 13.7908 34.4139 13.9953 34.3955 14.1988C34.3772 14.4022 34.3026 14.5966 34.18 14.76L30.0999 20.2Z" fill="#212121" stroke="#212121"/>
<rect x="0.5" y="0.5" width="47" height="47" rx="4.5" stroke="#E0E0E0"/>
</svg>
