<svg width="31" height="25" viewBox="0 0 31 25" fill="none" xmlns="http://www.w3.org/2000/svg">
<path fill-rule="evenodd" clip-rule="evenodd" d="M11.6199 2.3888C11.534 2.06855 11.3244 1.79554 11.0373 1.6298C10.7501 1.46406 10.4089 1.41919 10.0886 1.50505C9.76838 1.59091 9.49535 1.80049 9.32961 2.08765C9.16388 2.37481 9.11901 2.71605 9.20488 3.0363L9.52863 4.2438C9.61449 4.56405 9.82405 4.83707 10.1112 5.00281C10.3984 5.16855 10.7396 5.21341 11.0599 5.12755C11.3801 5.04169 11.6532 4.83212 11.8189 4.54496C11.9846 4.2578 12.0295 3.91655 11.9436 3.5963L11.6199 2.3888ZM6.31613 5.92505C6.15728 5.88175 5.99144 5.87026 5.82814 5.89122C5.66484 5.9122 5.50729 5.96522 5.36454 6.04726C5.22179 6.1293 5.09665 6.23872 4.99631 6.36926C4.89598 6.4998 4.82241 6.64887 4.77985 6.80791C4.73729 6.96696 4.72658 7.13285 4.7483 7.29605C4.77004 7.45926 4.8238 7.61656 4.9065 7.75892C4.9892 7.90129 5.09921 8.02591 5.23021 8.12564C5.36121 8.22538 5.51063 8.29824 5.66988 8.34005L6.87738 8.6638C7.19705 8.74775 7.53695 8.70167 7.82274 8.53566C8.10854 8.36965 8.31694 8.0972 8.40238 7.77793C8.48781 7.45865 8.44333 7.11852 8.27865 6.83196C8.11396 6.54541 7.8425 6.33572 7.52363 6.2488L6.31613 5.92505ZM17.3336 5.2138C17.4496 5.09766 17.5418 4.95981 17.6045 4.8081C17.6673 4.65639 17.6995 4.4938 17.6995 4.32961C17.6995 4.16542 17.667 4.00286 17.6041 3.8512C17.5413 3.69952 17.4491 3.56174 17.333 3.44567C17.2169 3.32962 17.079 3.23757 16.9272 3.1748C16.7756 3.11202 16.613 3.07974 16.4487 3.0798C16.2846 3.07986 16.122 3.11225 15.9704 3.17514C15.8187 3.23802 15.6809 3.33016 15.5649 3.4463L14.6811 4.33005C14.565 4.44619 14.4729 4.58406 14.41 4.73581C14.3472 4.88755 14.3148 5.05019 14.3148 5.21442C14.3148 5.37867 14.3472 5.54131 14.41 5.69305C14.4729 5.84479 14.565 5.98266 14.6811 6.0988C14.7973 6.21494 14.9351 6.30706 15.0869 6.36992C15.2386 6.43277 15.4012 6.46512 15.5655 6.46512C15.7297 6.46512 15.8924 6.43277 16.0441 6.36992C16.1959 6.30706 16.3338 6.21494 16.4499 6.0988L17.3336 5.2138ZM8.49488 14.0537L9.37863 13.17C9.61334 12.9356 9.74534 12.6176 9.74556 12.2859C9.7458 11.9542 9.61426 11.636 9.37988 11.4013C9.14549 11.1666 8.82746 11.0346 8.49575 11.0344C8.16405 11.0341 7.84584 11.1657 7.61113 11.4L6.72613 12.2838C6.49158 12.5184 6.3598 12.8365 6.3598 13.1681C6.3598 13.4999 6.49158 13.818 6.72613 14.0525C6.96068 14.2871 7.27879 14.4189 7.6105 14.4189C7.9422 14.4189 8.26033 14.2871 8.49488 14.0525V14.0537ZM12.4949 7.59005C12.2677 7.49912 12.0189 7.47686 11.7792 7.52604C11.5395 7.5752 11.3195 7.69364 11.1465 7.86665C10.9735 8.03968 10.855 8.25966 10.8059 8.49935C10.7567 8.73904 10.779 8.9879 10.8699 9.21505L15.8699 21.715C15.9595 21.9388 16.1118 22.1319 16.3086 22.271C16.5054 22.4101 16.7381 22.4894 16.9789 22.4994C17.2197 22.5093 17.4583 22.4494 17.6658 22.3268C17.8733 22.2043 18.041 22.0244 18.1486 21.8088L19.8736 18.36L23.6461 22.135C23.8806 22.3695 24.1988 22.501 24.5304 22.5009C24.8619 22.5009 25.1799 22.369 25.4143 22.1344C25.6486 21.8999 25.7803 21.5819 25.7801 21.2502C25.78 20.9186 25.6481 20.6006 25.4136 20.3662L21.6399 16.5912L25.0899 14.8675C25.3051 14.7596 25.4845 14.5919 25.6066 14.3844C25.7288 14.177 25.7885 13.9386 25.7784 13.6981C25.7684 13.4576 25.6891 13.225 25.5501 13.0285C25.4111 12.8319 25.2182 12.6796 24.9949 12.59L12.4949 7.59005Z" fill="#212121"/>
</svg>
