<svg width="80" height="80" viewBox="0 0 80 80" fill="none" xmlns="http://www.w3.org/2000/svg">
<rect width="80" height="80" rx="8" fill="#F5F5FD"/>
<path d="M30 41.25H37.5C37.8315 41.25 38.1495 41.1183 38.3839 40.8839C38.6183 40.6495 38.75 40.3315 38.75 40V30C38.75 29.6685 38.6183 29.3505 38.3839 29.1161C38.1495 28.8817 37.8315 28.75 37.5 28.75H30C29.6685 28.75 29.3505 28.8817 29.1161 29.1161C28.8817 29.3505 28.75 29.6685 28.75 30V40C28.75 40.3315 28.8817 40.6495 29.1161 40.8839C29.3505 41.1183 29.6685 41.25 30 41.25ZM28.75 50C28.75 50.3315 28.8817 50.6495 29.1161 50.8839C29.3505 51.1183 29.6685 51.25 30 51.25H37.5C37.8315 51.25 38.1495 51.1183 38.3839 50.8839C38.6183 50.6495 38.75 50.3315 38.75 50V45C38.75 44.6685 38.6183 44.3505 38.3839 44.1161C38.1495 43.8817 37.8315 43.75 37.5 43.75H30C29.6685 43.75 29.3505 43.8817 29.1161 44.1161C28.8817 44.3505 28.75 44.6685 28.75 45V50ZM41.25 50C41.25 50.3315 41.3817 50.6495 41.6161 50.8839C41.8505 51.1183 42.1685 51.25 42.5 51.25H50C50.3315 51.25 50.6495 51.1183 50.8839 50.8839C51.1183 50.6495 51.25 50.3315 51.25 50V41.25C51.25 40.9185 51.1183 40.6005 50.8839 40.3661C50.6495 40.1317 50.3315 40 50 40H42.5C42.1685 40 41.8505 40.1317 41.6161 40.3661C41.3817 40.6005 41.25 40.9185 41.25 41.25V50ZM42.5 37.5H50C50.3315 37.5 50.6495 37.3683 50.8839 37.1339C51.1183 36.8995 51.25 36.5815 51.25 36.25V30C51.25 29.6685 51.1183 29.3505 50.8839 29.1161C50.6495 28.8817 50.3315 28.75 50 28.75H42.5C42.1685 28.75 41.8505 28.8817 41.6161 29.1161C41.3817 29.3505 41.25 29.6685 41.25 30V36.25C41.25 36.5815 41.3817 36.8995 41.6161 37.1339C41.8505 37.3683 42.1685 37.5 42.5 37.5Z" fill="#EA5B54"/>
</svg>
