<svg width="24" height="24" viewBox="0 0 24 24" fill="none" xmlns="http://www.w3.org/2000/svg">
<path fill-rule="evenodd" clip-rule="evenodd" d="M9.315 7.584C12.195 3.883 16.695 1.5 21.75 1.5C21.9489 1.5 22.1397 1.57902 22.2803 1.71967C22.421 1.86032 22.5 2.05109 22.5 2.25C22.5 7.306 20.117 11.805 16.416 14.686C16.5699 15.6502 16.5128 16.6364 16.2486 17.5764C15.9844 18.5164 15.5194 19.388 14.8857 20.1308C14.2519 20.8737 13.4646 21.4702 12.5779 21.8792C11.6913 22.2883 10.7264 22.5001 9.75 22.5C9.55109 22.5 9.36032 22.421 9.21967 22.2803C9.07902 22.1397 9 21.9489 9 21.75V17.619C8.02793 16.8514 7.14925 15.9724 6.382 15H2.25C2.05109 15 1.86032 14.921 1.71967 14.7803C1.57902 14.6397 1.5 14.4489 1.5 14.25C1.49992 13.2735 1.71173 12.3085 2.12082 11.4218C2.52991 10.5351 3.12653 9.74765 3.86951 9.11391C4.61249 8.48017 5.48413 8.01519 6.42427 7.75105C7.36442 7.48692 8.35068 7.42992 9.315 7.584ZM15 6.75C14.4033 6.75 13.831 6.98705 13.409 7.40901C12.9871 7.83097 12.75 8.40326 12.75 9C12.75 9.59674 12.9871 10.169 13.409 10.591C13.831 11.0129 14.4033 11.25 15 11.25C15.5967 11.25 16.169 11.0129 16.591 10.591C17.0129 10.169 17.25 9.59674 17.25 9C17.25 8.40326 17.0129 7.83097 16.591 7.40901C16.169 6.98705 15.5967 6.75 15 6.75Z" fill="black"/>
<path d="M5.26001 17.242C5.339 17.1831 5.40561 17.1092 5.45605 17.0246C5.50649 16.9399 5.53976 16.8462 5.55397 16.7487C5.56818 16.6512 5.56304 16.5518 5.53885 16.4563C5.51467 16.3608 5.4719 16.271 5.41301 16.192C5.35411 16.113 5.28023 16.0464 5.19559 15.996C5.11094 15.9455 5.01719 15.9122 4.91969 15.898C4.82219 15.8838 4.72285 15.889 4.62733 15.9132C4.53181 15.9373 4.442 15.9801 4.36301 16.039C3.5959 16.6096 2.99941 17.3791 2.63809 18.2643C2.27676 19.1495 2.16435 20.1166 2.31301 21.061C2.33718 21.2183 2.41077 21.3638 2.52313 21.4766C2.63548 21.5893 2.78078 21.6633 2.93801 21.688C3.88254 21.8365 4.84971 21.724 5.73488 21.3625C6.62005 21.001 7.38951 20.4043 7.96001 19.637C8.0208 19.5582 8.06531 19.4681 8.09094 19.372C8.11658 19.2758 8.12282 19.1755 8.1093 19.0769C8.09579 18.9784 8.06279 18.8834 8.01223 18.7977C7.96167 18.712 7.89456 18.6372 7.81481 18.5777C7.73506 18.5182 7.64426 18.4751 7.54771 18.4511C7.45115 18.427 7.35077 18.4224 7.25241 18.4375C7.15405 18.4526 7.05969 18.4871 6.9748 18.539C6.88992 18.591 6.81623 18.6593 6.75801 18.74C6.40927 19.209 5.95558 19.5899 5.43325 19.8521C4.91092 20.1143 4.33446 20.2506 3.75001 20.25C3.75001 19.02 4.34201 17.927 5.26001 17.242Z" fill="black"/>
</svg>
