<svg width="86" height="38" viewBox="0 0 86 38" fill="none" xmlns="http://www.w3.org/2000/svg">
<path d="M14.5466 22.8872L17.7831 23.7694C17.5654 24.5924 17.2244 25.2804 16.7563 25.8301C16.2882 26.3832 15.7113 26.7979 15.0147 27.0778C14.3216 27.3576 13.4436 27.4991 12.3732 27.4991C11.0742 27.4991 10.0148 27.3279 9.18748 26.9856C8.36747 26.6432 7.65993 26.0408 7.06125 25.1816C6.46257 24.3224 6.16504 23.2196 6.16504 21.8765C6.16504 20.089 6.68753 18.7097 7.73976 17.7485C8.79199 16.7873 10.2796 16.3066 12.199 16.3066C13.7048 16.3066 14.8877 16.5799 15.7476 17.1329C16.6075 17.6859 17.2497 18.532 17.667 19.6776L14.416 20.3294C14.2999 20.0035 14.1838 19.7631 14.0568 19.6117C13.85 19.3549 13.596 19.1607 13.2984 19.0225C12.9973 18.8842 12.6635 18.8184 12.297 18.8184C11.4552 18.8184 10.813 19.1212 10.3703 19.7302C10.0329 20.1812 9.86599 20.8923 9.86599 21.8568C9.86599 23.0583 10.0656 23.8747 10.4683 24.3224C10.8711 24.7668 11.4335 24.9874 12.1628 24.9874C12.8667 24.9874 13.4 24.8096 13.7629 24.4475C14.1221 24.092 14.3833 23.5686 14.5466 22.8872ZM18.3709 16.4877H22.0537V20.2701H26.0885V16.4877H29.7894V27.3181H26.0885V22.93H22.0537V27.3181H18.3709V16.4877ZM31.0303 16.4877H40.8996V18.8019H34.7313V20.5269H40.4496V22.7357H34.7313V24.8656H41.0846V27.3181H31.0303V16.4877ZM41.8284 16.4877H46.6941L48.5446 23.0781L50.4059 16.4877H55.2462V27.3181H52.231V19.062L49.9016 27.3181H47.1694L44.8472 19.062V27.3181H41.8284V16.4877ZM64.3389 22.8872L67.5718 23.7694C67.3541 24.5924 67.013 25.2804 66.545 25.8301C66.0769 26.3832 65.5 26.7979 64.8033 27.0778C64.1139 27.3576 63.2323 27.4991 62.1619 27.4991C60.8629 27.4991 59.8034 27.3279 58.9798 26.9856C58.1561 26.6432 57.4486 26.0408 56.8499 25.1816C56.2512 24.3224 55.9537 23.2196 55.9537 21.8765C55.9537 20.089 56.4798 18.7097 57.5284 17.7485C58.5807 16.7873 60.0683 16.3066 61.9913 16.3066C63.4935 16.3066 64.6763 16.5799 65.5363 17.1329C66.3962 17.6859 67.0384 18.532 67.4557 19.6776L64.2047 20.3294C64.0922 20.0035 63.9724 19.7631 63.8454 19.6117C63.6386 19.3549 63.3846 19.1607 63.0871 19.0225C62.786 18.8842 62.4558 18.8184 62.0857 18.8184C61.2439 18.8184 60.6053 19.1212 60.159 19.7302C59.8216 20.1812 59.6547 20.8923 59.6547 21.8568C59.6547 23.0583 59.8542 23.8747 60.257 24.3224C60.6597 24.7668 61.2221 24.9874 61.9514 24.9874C62.6553 24.9874 63.1887 24.8096 63.5515 24.4475C63.9144 24.092 64.1756 23.5686 64.3389 22.8872ZM67.677 21.9095C67.677 20.1417 68.2176 18.7657 69.3062 17.7847C70.3911 16.7971 71.9041 16.3066 73.8416 16.3066C75.83 16.3066 77.3612 16.7906 78.4352 17.7551C79.5092 18.7229 80.0462 20.0792 80.0462 21.8206C80.0462 23.088 79.814 24.1249 79.3423 24.9314C78.8742 25.7412 78.1921 26.3733 77.3067 26.8243C76.4178 27.2753 75.3111 27.4991 73.9868 27.4991C72.6406 27.4991 71.5267 27.3049 70.645 26.9165C69.7633 26.5247 69.0485 25.9091 68.5007 25.0697C67.9528 24.2303 67.677 23.1769 67.677 21.9095ZM71.3598 21.9161C71.3598 23.009 71.5848 23.7957 72.0347 24.2731C72.4846 24.7471 73.0942 24.9874 73.867 24.9874C74.658 24.9874 75.2748 24.7537 75.7103 24.2862C76.1457 23.8188 76.3634 22.9826 76.3634 21.7679C76.3634 20.7507 76.1348 20.0067 75.6812 19.5393C75.2241 19.0686 74.6109 18.8315 73.8344 18.8315C73.0906 18.8315 72.4883 19.0718 72.0383 19.5492C71.5848 20.0232 71.3598 20.8166 71.3598 21.9161Z" fill="#0057A6"/>
</svg>
