<svg width="24" height="24" viewBox="0 0 24 24" fill="none" xmlns="http://www.w3.org/2000/svg">
<path d="M21.731 2.269C21.2387 1.77681 20.5711 1.50031 19.875 1.50031C19.1789 1.50031 18.5113 1.77681 18.019 2.269L16.862 3.426L20.574 7.138L21.731 5.981C22.2232 5.48873 22.4997 4.82112 22.4997 4.125C22.4997 3.42889 22.2232 2.76127 21.731 2.269ZM19.513 8.199L15.801 4.487L3.651 16.637C3.03385 17.2538 2.58018 18.0148 2.331 18.851L1.531 21.536C1.49238 21.6656 1.4895 21.8032 1.52267 21.9342C1.55583 22.0653 1.62382 22.185 1.71942 22.2806C1.81502 22.3762 1.93469 22.4442 2.06576 22.4773C2.19683 22.5105 2.33443 22.5076 2.464 22.469L5.149 21.669C5.98523 21.4198 6.74616 20.9662 7.363 20.349L19.513 8.199Z" fill="black"/>
</svg>
