<svg width="56" height="38" viewBox="0 0 56 38" fill="none" xmlns="http://www.w3.org/2000/svg">
<g clip-path="url(#clip0_376_10180)">
<path d="M53.6306 30.9146H3.63281V10.6068H53.6357L53.6306 30.9146Z" fill="#0058A3"/>
<path d="M4.60352 20.7607C4.60352 25.6701 14.6711 29.7469 28.6277 29.7469C42.5893 29.7469 52.6518 25.6752 52.6518 20.7607C52.6518 15.8462 42.5842 11.7745 28.6226 11.7745C14.661 11.7745 4.60352 15.8513 4.60352 20.7607Z" fill="#FFDB00"/>
<path d="M27.2136 23.6394C27.3709 23.8729 27.5436 24.0861 27.7416 24.2791H22.3346C22.3346 24.0658 22.1315 23.6292 21.898 23.284C21.6594 22.9387 20.4257 21.0501 20.4257 21.0501V23.6394C20.4257 23.8577 20.4257 24.0658 20.5374 24.2791H16.029C16.1306 24.0658 16.1306 23.8577 16.1306 23.6394V17.4963C16.1306 17.2779 16.1306 17.0698 16.029 16.8566H20.5374C20.4257 17.0698 20.4257 17.2779 20.4257 17.4912V20.1718C20.4257 20.1718 21.8675 18.3035 22.1975 17.8567C22.4514 17.5267 22.756 17.0647 22.756 16.8464H27.4573C27.0906 17.1228 26.7627 17.4473 26.4825 17.811L24.7614 19.9078C24.7614 19.9078 26.9293 23.218 27.2136 23.6394ZM28.625 17.4963V23.6394C28.625 23.8577 28.625 24.0658 28.5183 24.2791H37.2152V22.2229C37.0019 22.3295 36.7938 22.3295 36.5805 22.3295H32.9201V21.3547H36.4384V19.7961H32.9201V18.8264H36.5755C36.7938 18.8264 37.0019 18.8264 37.2152 18.928V16.8667H28.5234C28.625 17.0749 28.625 17.283 28.625 17.4963ZM49.278 23.6394C49.3491 23.878 49.4709 24.0963 49.6283 24.2791H44.9118C44.9321 24.0658 44.856 23.8577 44.7697 23.6394L44.597 23.218L44.5564 23.1114H41.8403L41.7946 23.218L41.6423 23.6394C41.5763 23.8577 41.495 24.0658 41.5255 24.2791H37.799C37.9513 24.0912 38.063 23.878 38.1341 23.6394L40.3679 17.4963C40.4441 17.2779 40.5203 17.0698 40.4949 16.8566H46.7852C46.7243 17.0698 46.836 17.2779 46.9172 17.4912L49.278 23.6394ZM43.9624 21.5426L43.3024 19.8215C43.2425 19.6625 43.1933 19.4997 43.1552 19.3341C43.1298 19.5017 43.079 19.6641 43.0283 19.8215C43.008 19.8926 42.7237 20.644 42.4038 21.5426H43.9624ZM13.8866 16.8515H8.9873C9.08884 17.0647 9.08884 17.2729 9.08884 17.4861V23.6343C9.08884 23.8526 9.08884 24.0608 8.9873 24.274H13.8866C13.7799 24.0608 13.7799 23.8526 13.7799 23.6343V17.4912C13.7799 17.2729 13.7799 17.0596 13.8866 16.8515ZM47.7651 17.4404C47.7596 17.316 47.7791 17.1919 47.8223 17.0751C47.8656 16.9584 47.9317 16.8515 48.0168 16.7607C48.102 16.6699 48.2044 16.597 48.3181 16.5463C48.4318 16.4957 48.5545 16.4682 48.6789 16.4656H48.7398C49.2729 16.4555 49.7045 16.8769 49.7146 17.3998V17.4404C49.7213 17.6996 49.6248 17.9509 49.4463 18.1389C49.2678 18.327 49.0219 18.4364 48.7627 18.4431C48.5035 18.4498 48.2522 18.3533 48.0642 18.1748C47.8761 17.9963 47.7667 17.7504 47.76 17.4912L47.7651 17.4404ZM47.9631 17.4404C47.9631 17.8669 48.3032 18.2172 48.7398 18.2273C49.1714 18.2273 49.5217 17.8821 49.5318 17.4455C49.5318 17.0139 49.1866 16.6636 48.75 16.6586C48.3337 16.6433 47.9834 16.9632 47.9681 17.3795L47.9631 17.4404ZM48.5469 18.0192H48.3743V16.8515H48.816C49.0241 16.8566 49.1815 17.0241 49.1815 17.2323C49.1815 17.3744 49.1054 17.5013 48.9785 17.5724L49.2272 18.0293H49.0343L48.8058 17.6079H48.552L48.5469 18.0192ZM48.5469 17.4404H48.7855C48.8972 17.4404 48.9988 17.3592 48.9988 17.2424C49.0008 17.2156 48.9974 17.1886 48.9887 17.1631C48.98 17.1377 48.9662 17.1142 48.9482 17.0943C48.9301 17.0743 48.9082 17.0583 48.8837 17.0471C48.8592 17.0359 48.8327 17.0298 48.8058 17.0292H48.552L48.5469 17.4404Z" fill="#0058A3"/>
</g>
<defs>
<clipPath id="clip0_376_10180">
<rect width="50.0029" height="20.3078" fill="white" transform="translate(3.63281 10.6068)"/>
</clipPath>
</defs>
</svg>
