<svg width="35" height="35" viewBox="0 0 35 35" fill="none" xmlns="http://www.w3.org/2000/svg">
<path d="M26.7969 5.46875H15.8594C14.8444 5.46984 13.8714 5.8735 13.1537 6.59118C12.436 7.30886 12.0323 8.28193 12.0312 9.29688V16.4062H22.5155L18.9144 12.8044C18.7179 12.5976 18.61 12.3223 18.6136 12.037C18.6173 11.7518 18.7322 11.4793 18.9339 11.2777C19.1356 11.076 19.4081 10.961 19.6933 10.9574C19.9785 10.9537 20.2539 11.0616 20.4606 11.2581L25.9294 16.7269C26.1344 16.932 26.2495 17.21 26.2495 17.5C26.2495 17.79 26.1344 18.068 25.9294 18.2731L20.4606 23.7419C20.2539 23.9384 19.9785 24.0463 19.6933 24.0426C19.4081 24.039 19.1356 23.924 18.9339 23.7223C18.7322 23.5207 18.6173 23.2482 18.6136 22.963C18.61 22.6777 18.7179 22.4024 18.9144 22.1956L22.5155 18.5938H12.0312V25.7031C12.0312 27.894 14.3411 29.5312 16.4062 29.5312H26.7969C27.8118 29.5302 28.7849 29.1265 29.5026 28.4088C30.2202 27.6911 30.6239 26.7181 30.625 25.7031V9.29688C30.6239 8.28193 30.2202 7.30886 29.5026 6.59118C28.7849 5.8735 27.8118 5.46984 26.7969 5.46875ZM5.46875 16.4062C5.17867 16.4062 4.90047 16.5215 4.69535 16.7266C4.49023 16.9317 4.375 17.2099 4.375 17.5C4.375 17.7901 4.49023 18.0683 4.69535 18.2734C4.90047 18.4785 5.17867 18.5938 5.46875 18.5938H12.0312V16.4062H5.46875Z" fill="#FFC915"/>
</svg>
