<svg id="Layer_1" data-name="Layer 1" xmlns="http://www.w3.org/2000/svg" xmlns:xlink="http://www.w3.org/1999/xlink" viewBox="0 0 603.08 355.78"><defs><style>.cls-1{fill:url(#linear-gradient);}.cls-2{fill:#fff;}.cls-3{fill:url(#linear-gradient-2);}.cls-4{fill:url(#linear-gradient-3);}.cls-5{fill:url(#linear-gradient-4);}</style><linearGradient id="linear-gradient" x1="163.88" y1="178.6" x2="411.2" y2="178.6" gradientUnits="userSpaceOnUse"><stop offset="0" stop-color="#8432fe"/><stop offset="0.62" stop-color="#557df6"/><stop offset="1" stop-color="#3ba6f1"/></linearGradient><linearGradient id="linear-gradient-2" x1="256.27" y1="135.32" x2="271.23" y2="135.32" xlink:href="#linear-gradient"/><linearGradient id="linear-gradient-3" x1="279.54" y1="135.32" x2="294.51" y2="135.32" xlink:href="#linear-gradient"/><linearGradient id="linear-gradient-4" x1="302.14" y1="135.32" x2="317.1" y2="135.32" xlink:href="#linear-gradient"/></defs><path class="cls-1" d="M410.54,74.68c-.09.18-.17.35-.26.52-.15.34-.33.67-.49,1L406.07,84l-.3.61c-1.59,3.29-3.18,6.57-4.75,9.88l-.6,1.26q-8.13,16.91-16.21,33.84-25.29,53-50.5,106.12c-5.39,11.32-10.44,22.87-16.53,33.77a37.53,37.53,0,0,1-10.87,12.34c-.64.42-1.29.82-2,1.2-17,9.45-36.85,3.78-46.79-14-6.09-10.9-11.13-22.45-16.53-33.77q-25.28-53-50.49-106.12Q177.8,102.41,165,75.78c-.22-.45-.46-.89-.64-1.35a3.81,3.81,0,0,1-.05-3.44,3.36,3.36,0,0,1,2.94-1.25c2.34-.08,4.67,0,7,0h84.4c5.89,0,11.36,6,6.68,11.46-5.75,6.68-13.78,11-17.82,19.41a60.18,60.18,0,0,0-5.09,33,50.43,50.43,0,0,0,4.56,15.86L287,190.05q3.54-3.7,7-7.5A34.45,34.45,0,0,1,306.35,174c.83-.35,1.65-.72,2.44-1.11,16-7.71,24.79-21.16,26.52-39.93,1.15-12.46-1.36-23.55-8.42-32.71a44.73,44.73,0,0,0-6.12-6.48C316.49,90.08,310.66,88,307,83.46c-4.72-5.86-.3-13.7,6.92-13.72,14.5,0,29,0,43.51,0h48.83c.48,0,1,0,1.44,0C411,69.83,412,71.55,410.54,74.68Z"/><path class="cls-2" d="M343.82,137C342,164,321.23,185.24,295,189.18L263.8,214.72a1.48,1.48,0,0,1-2.34-1.07l1.93-28.36c-22.06-9.2-36.86-31.28-35.21-56A56.26,56.26,0,0,1,255.25,85a58.55,58.55,0,0,1,34.52-8.41C321.7,78.72,345.9,105.77,343.82,137Z"/><circle class="cls-3" cx="263.75" cy="135.32" r="7.48"/><circle class="cls-4" cx="287.02" cy="135.32" r="7.48"/><circle class="cls-5" cx="309.62" cy="135.32" r="7.48"/></svg>