<svg width="24" height="24" viewBox="0 0 24 24" fill="none" xmlns="http://www.w3.org/2000/svg">
<path fill-rule="evenodd" clip-rule="evenodd" d="M5.47 5.47C5.61062 5.32955 5.80125 5.25066 6 5.25066C6.19875 5.25066 6.38937 5.32955 6.53 5.47L12 10.94L17.47 5.47C17.5387 5.39631 17.6215 5.33721 17.7135 5.29622C17.8055 5.25523 17.9048 5.23319 18.0055 5.23141C18.1062 5.22963 18.2062 5.24816 18.2996 5.28588C18.393 5.3236 18.4778 5.37974 18.549 5.45096C18.6203 5.52218 18.6764 5.60701 18.7141 5.7004C18.7518 5.79379 18.7704 5.89382 18.7686 5.99452C18.7668 6.09523 18.7448 6.19454 18.7038 6.28654C18.6628 6.37854 18.6037 6.46134 18.53 6.53L13.06 12L18.53 17.47C18.6037 17.5387 18.6628 17.6215 18.7038 17.7135C18.7448 17.8055 18.7668 17.9048 18.7686 18.0055C18.7704 18.1062 18.7518 18.2062 18.7141 18.2996C18.6764 18.393 18.6203 18.4778 18.549 18.549C18.4778 18.6203 18.393 18.6764 18.2996 18.7141C18.2062 18.7518 18.1062 18.7704 18.0055 18.7686C17.9048 18.7668 17.8055 18.7448 17.7135 18.7038C17.6215 18.6628 17.5387 18.6037 17.47 18.53L12 13.06L6.53 18.53C6.38782 18.6625 6.19977 18.7346 6.00547 18.7312C5.81117 18.7277 5.62579 18.649 5.48837 18.5116C5.35096 18.3742 5.27225 18.1888 5.26882 17.9945C5.26539 17.8002 5.33752 17.6122 5.47 17.47L10.94 12L5.47 6.53C5.32955 6.38938 5.25066 6.19875 5.25066 6C5.25066 5.80125 5.32955 5.61063 5.47 5.47Z" fill="black"/>
</svg>
